<svg xmlns="http://www.w3.org/2000/svg" width="64.271" height="50.453" viewBox="0 0 64.271 50.453"><g transform="translate(68.271 -31.547) rotate(180)" style="mix-blend-mode:multiply;isolation:isolate"><path d="M4-68.043v13.957H19.352v2.442c0,5.3-3.489,10.119-7.327,10.119-.837,0-1.047.977-1.047,4.955v5.024l3.419-.419A19.521,19.521,0,0,0,29.68-42.572c1.884-3.489,1.884-3.559,2.094-21.493L31.983-82H4Z" transform="translate(0 0)" fill="#f40076"/><path d="M56-68.043v13.957H71.352v2.442c0,5.3-3.489,10.119-7.327,10.119-.837,0-1.047.977-1.047,4.955v5.024l3.419-.419A19.521,19.521,0,0,0,81.68-42.572c1.884-3.489,1.884-3.559,2.093-21.493L83.983-82H56Z" transform="translate(-15.713 0)" fill="#f40076"/></g></svg>



