<svg xmlns="http://www.w3.org/2000/svg" width="572.351" height="600.713" viewBox="0 0 572.351 600.713"><g transform="translate(-41.259 -46.062)"><g transform="translate(54.711 46.446)"><g transform="translate(18.305 252.239)"><g transform="translate(1.746 59.191)"><path d="M65.705,283.93c32.273-17.4,64.344-7.6,64.344-7.6C107.1,297.208,65.705,283.93,65.705,283.93Z" transform="translate(-65.705 -273.579)" fill="#e0e0e0"/></g><g transform="translate(96.55 38.007)"><path d="M142.141,258.122c6.35,21.587-3.763,40.786-3.763,40.786C128.712,282.84,142.141,258.122,142.141,258.122Z" transform="translate(-134.879 -258.122)" fill="#e0e0e0"/></g><g transform="translate(51.358 85.724)"><path d="M150.8,296.169c-23.985,12.459-48.9,5.1-48.9,5.1C118.624,286.208,150.8,296.169,150.8,296.169Z" transform="translate(-101.905 -292.939)" fill="#e0e0e0"/></g><g transform="translate(49.908 42.516)"><path d="M100.851,261.422c.312-.392,15.847,11.486,34.693,26.528s33.876,27.557,33.564,27.95-15.844-11.485-34.7-26.53S100.539,261.814,100.851,261.422Z" transform="translate(-100.847 -261.412)" fill="#e0e0e0"/></g><g transform="translate(0 12.594)"><path d="M64.431,239.579s41.766,2.241,57.019,36.357C121.45,275.936,85.786,274.516,64.431,239.579Z" transform="translate(-64.431 -239.579)" fill="#e0e0e0"/></g><g transform="translate(57.846)"><path d="M106.975,230.39s32.2,26.7,24.109,63.179C131.083,293.569,103.295,271.171,106.975,230.39Z" transform="translate(-106.639 -230.39)" fill="#e0e0e0"/></g></g><g transform="translate(446.243 168.642)"><g transform="translate(45.427 56.233)"><path d="M477.054,212.155c-37.918-7.584-67.229,12.207-67.229,12.207C439.412,238.328,477.054,212.155,477.054,212.155Z" transform="translate(-409.825 -210.424)" fill="#e0e0e0"/></g><g transform="translate(0 57.685)"><path d="M376.679,211.483c.263,23.729,16.39,39.965,16.39,39.965C397.853,232.26,376.679,211.483,376.679,211.483Z" transform="translate(-376.679 -211.483)" fill="#e0e0e0"/></g><g transform="translate(19.32 95.187)"><path d="M390.776,251.619c28.032,5.156,50.88-9.958,50.88-9.958C420.146,231.637,390.776,251.619,390.776,251.619Z" transform="translate(-390.776 -238.847)" fill="#e0e0e0"/></g><g transform="translate(3.729 45.593)"><path d="M431.415,202.664c-.437-.3-12.432,16.475-26.791,37.461s-25.649,38.25-25.212,38.548,12.43-16.472,26.792-37.466S431.851,202.961,431.415,202.664Z" transform="translate(-379.4 -202.66)" fill="#e0e0e0"/></g><g transform="translate(50.564)"><path d="M459.839,169.393s-41.424,15.158-46.266,54.269C413.573,223.662,449.1,211.217,459.839,169.393Z" transform="translate(-413.573 -169.393)" fill="#e0e0e0"/></g><g transform="translate(21.93 5.27)"><path d="M405.023,173.238s-24.224,36.863-4.8,71.153C400.224,244.391,421.328,213.223,405.023,173.238Z" transform="translate(-392.681 -173.238)" fill="#e0e0e0"/></g></g><g transform="translate(385.997)"><g transform="translate(31.873 39.454)"><path d="M403.145,76.344c-26.6-5.32-47.169,8.566-47.169,8.566C376.735,94.708,403.145,76.344,403.145,76.344Z" transform="translate(-355.976 -75.13)" fill="#e0e0e0"/></g><g transform="translate(0 40.472)"><path d="M332.72,75.873c.185,16.649,11.5,28.041,11.5,28.041C347.576,90.451,332.72,75.873,332.72,75.873Z" transform="translate(-332.72 -75.873)" fill="#e0e0e0"/></g><g transform="translate(13.556 66.785)"><path d="M342.611,104.034c19.668,3.617,35.7-6.987,35.7-6.987C363.217,90.013,342.611,104.034,342.611,104.034Z" transform="translate(-342.611 -95.073)" fill="#e0e0e0"/></g><g transform="translate(2.616 31.989)"><path d="M371.124,69.686c-.307-.21-8.723,11.56-18.8,26.284s-17.995,26.837-17.689,27.047,8.722-11.557,18.8-26.288S371.43,69.894,371.124,69.686Z" transform="translate(-334.629 -69.683)" fill="#e0e0e0"/></g><g transform="translate(35.476)"><path d="M391.067,46.342S362,56.977,358.605,84.419C358.605,84.419,383.529,75.686,391.067,46.342Z" transform="translate(-358.605 -46.342)" fill="#e0e0e0"/></g><g transform="translate(15.386 3.696)"><path d="M352.606,49.039s-17,25.864-3.366,49.923C349.24,98.962,364.046,77.093,352.606,49.039Z" transform="translate(-343.947 -49.039)" fill="#e0e0e0"/></g></g><g transform="translate(0 174.833)"><g transform="translate(0 0)"><rect width="57.653" height="72.113" transform="translate(0 57.347) rotate(-84.1)" fill="#f5f5f5"/></g><g transform="translate(2.846 3.866)"><g transform="translate(0 0)"><rect width="50.394" height="67.047" transform="translate(0 50.127) rotate(-84.099)" fill="#ebebeb"/></g></g><g transform="translate(2.846 25.242)"><path d="M53.151,221.079l26.514-28.751L92.08,213.313l10.864-9.41,16.9,24.068Z" transform="translate(-53.151 -192.328)" fill="#e0e0e0"/></g><g transform="translate(39.778 17.727)"><path d="M90.63,192.667a5.28,5.28,0,1,1-4.709-5.793A5.281,5.281,0,0,1,90.63,192.667Z" transform="translate(-80.098 -186.845)" fill="#e0e0e0"/></g></g><g transform="translate(442.535 459.419)"><g transform="translate(0)"><g transform="translate(0)"><rect width="41.634" height="52.077" transform="translate(0 41.193) rotate(-81.645)" fill="#f5f5f5"/></g><g transform="translate(2.157 2.854)"><g transform="translate(0 0)"><rect width="36.393" height="48.419" transform="translate(0 36.006) rotate(-81.645)" fill="#ebebeb"/></g></g><g transform="translate(2.157 18.936)"><path d="M375.547,415.3l20.019-19.924,8.308,15.525L412,404.449l11.449,17.888Z" transform="translate(-375.547 -395.378)" fill="#e0e0e0"/></g><g transform="translate(29.757 13.996)"><path d="M403.272,396.14a3.813,3.813,0,1,1-3.218-4.325A3.813,3.813,0,0,1,403.272,396.14Z" transform="translate(-395.686 -391.773)" fill="#e0e0e0"/></g></g></g><g transform="translate(20.228 396.056)"><g transform="translate(0 0)"><g transform="translate(0)"><rect width="52.077" height="41.634" transform="translate(0 24.475) rotate(-28.033)" fill="#f5f5f5"/></g><g transform="translate(2.817 3.189)"><g transform="translate(0 0)"><rect width="48.419" height="36.392" transform="matrix(0.883, -0.47, 0.47, 0.883, 0, 22.755)" fill="#ebebeb"/></g></g><g transform="translate(19.92 27.704)"><path d="M80.369,385.9l4.3-27.915,15.9,7.569,2.716-10.018,19.828,7.608Z" transform="translate(-80.369 -355.541)" fill="#e0e0e0"/></g><g transform="translate(28.907 18.672)"><path d="M94.1,350.973a3.812,3.812,0,1,1-5.156-1.573A3.811,3.811,0,0,1,94.1,350.973Z" transform="translate(-86.926 -348.951)" fill="#e0e0e0"/></g></g></g></g><g transform="translate(41.259 646.061)"><path d="M613.421,484.213c0,.2-128.093.356-286.067.356-158.029,0-286.095-.16-286.095-.356s128.066-.358,286.095-.358C485.328,483.855,613.421,484.015,613.421,484.213Z" transform="translate(-41.259 -483.855)" fill="#263238"/></g><g transform="translate(149.646 46.062)"><g transform="translate(1.153 1.056)"><g transform="translate(0.179)"><path d="M469.491,237.322c-1.8-4.053-2.2-8.541-3.388-12.8-.637-2.287-1.708-4.72-3.851-5.733-1.418-.666-3.1-.578-4.6-1.043-5.415-1.62-6.891-9.177-12.015-11.523a17.414,17.414,0,0,0-5.154-1.072c-6.862-.81-13.956-3.184-18.27-8.57-1.419-1.738-2.49-3.794-4.227-5.212-1.767-1.418-4.488-2.027-6.2-.578,1.447,2.895,2.866,5.79,4.285,8.657,1.3,2.605,2.634,5.3,4.805,7.209,2.2,1.941,5.444,2.953,8.079,1.738.869-.406,1.736-1.072,2.722-.955a2.932,2.932,0,0,1,1.765,1.129c3.735,4.14,2.519,11-1.129,15.229-3.618,4.2-9,6.4-14.187,8.455-1.853.724-3.821,1.476-5.79,1.129-3.591-.666-5.5-4.575-6.544-8.078-2.345-7.76-3.474-16.186-8.281-22.73-1.534-2.056-3.445-3.937-4.372-6.34-.984-2.607-.754-5.646-2.316-7.934-1.621-2.4-5.068-3.794-5.3-6.688-.145-2.027,1.534-3.822,3.388-4.691,1.853-.9,3.937-1.158,5.848-1.939.754-.319,1.593-.869,1.621-1.68,0-1.216-1.679-1.708-2.113-2.837-.463-1.275.84-2.461,1.39-3.707,1.187-2.837-1.767-5.7-4.632-6.861-2.838-1.158-6.284-2-7.616-4.778a16.574,16.574,0,0,1-.925-4.14c-.666-3.5-3.244-6.891-6.776-7.471-3.562-.58-7.5,2.577-6.92,6.11.347,1.939,1.794,3.445,2.577,5.239.81,1.8.578,4.46-1.275,5.039-3.04.926-5.964-4.632-8.512-2.722,1.043,3.561,2.056,7.123,3.1,10.713-4,2.026-8.774-1.651-10.482-5.821-1.709-4.14-1.767-8.889-3.794-12.885-2.027-4.024-7.5-7.006-10.974-4.169-.174,5.154,6.63,7.239,9.642,11.409,2.172,3.011,1.853,7.9-1.361,9.814-3.185,1.912-8.252-1.418-7.035-4.921.434-1.217,1.447-2.23,1.562-3.533.117-1.621-1.244-2.925-2.489-3.966-1.941-1.65-3.881-3.273-5.821-4.894a12.23,12.23,0,0,0-4.14-2.605c-4-1.158-7.991,2.085-10.1,5.646-2.113,3.591-3.3,7.789-6.226,10.771-4.2,4.343-12.16,4.6-16.1.058-3.966-4.546-1.939-13.058,3.88-14.708,2.2-.609,4.98-.55,6.138-2.49,2.027-3.445-3.765-7.846-1.767-11.322,1.535-2.663,5.589-1.447,8.542-2.345,2.923-.9,4.575-3.851,6.311-6.4,1.709-2.519,4.4-5.067,7.413-4.4-.232-1.767-.463-3.677.318-5.27.781-1.621,2.982-2.664,4.43-1.621-1.476,2.433.291,5.819,2.867,7.036s5.588.926,8.426.607c2.837-.347,6.4-1.39,6.63-4.227.086-.926-.26-1.91.086-2.779,1.246-3.388,7.5,1.273,9.9-1.449,1.388-1.418-.145-3.937-2.086-4.4-1.91-.492-3.909.232-5.877.289-1.969.088-4.373-.955-4.46-2.923-.086-1.941,2.085-3.33,2.316-5.241.377-3.243-5.124-4.083-7.065-1.449-1.911,2.635-1.244,6.255-.665,9.469.607,3.214.9,7.006-1.477,9.265-1.014,1.535-3.648.724-4.517-.9-.9-1.623-.695-3.592-.84-5.415-.144-1.854-.955-3.939-2.749-4.431-1.246-.347-2.578.26-3.851.434-5.038.609-8.542-5.906-6.95-10.712,1.564-4.837,6.138-7.934,10.569-10.4,3.243-1.8,7.266-3.474,10.48-1.65,1.506.839,2.549,2.287,4.025,3.156,2.548,1.5,5.7.955,8.629,1.013a20.092,20.092,0,0,1,12.595,4.894c1.3,1.185,2.519,3.155,1.506,4.575-1.1,1.5-4.257,1.823-3.707,3.589a6.278,6.278,0,0,0,7.876-5.067,5.269,5.269,0,0,1,3.04,4.286c3.677-3.736,10.742-3.185,13.753,1.129.811,1.129,1.39,2.489,2.548,3.271,1.158.752,3.185.376,3.33-.985a2.783,2.783,0,0,0-.232-1.273c-.695-1.969-1.418-3.909-2.113-5.849,2.693-1.447,5.877.811,7.7,3.244,6.776,9.062,11.611,3.618,21.166,5.1,6.456.984,9.295,5.124,12.942,10.134,11.177,15.4,25.944,28.028,36.106,44.126,1.072,1.679,2.056,3.388,2.982,5.124-.173-.434-.318-.868-.492-1.3A178.5,178.5,0,0,0,460.255,134.5q-1.869-3.038-3.822-5.993c-.811-1.216-1.651-2.46-2.49-3.648-1.07-1.564-2.2-3.069-3.33-4.575-.9-1.216-1.794-2.4-2.722-3.561-.636-.811-1.3-1.621-1.968-2.433-.695-.926-1.447-1.824-2.259-2.722l-2.433-2.808a10.634,10.634,0,0,0-.781-.869c-.84-.984-1.738-1.939-2.635-2.9a.823.823,0,0,0-.26-.289c-.23-.26-.492-.521-.752-.781-.724-.811-1.506-1.593-2.259-2.375-1.245-1.273-2.519-2.546-3.822-3.763-1.07-1.072-2.171-2.085-3.3-3.1-.984-.9-1.969-1.8-2.982-2.664-.984-.869-1.969-1.709-2.982-2.548-1.216-1.043-2.461-2.057-3.736-3.07h-.029q-5.254-4.212-10.828-7.963c-.926-.636-1.824-1.244-2.751-1.852-.926-.639-1.882-1.217-2.808-1.8-.955-.578-1.882-1.187-2.838-1.736-.955-.609-1.911-1.158-2.866-1.709-.783-.463-1.535-.9-2.316-1.3a12.043,12.043,0,0,0-1.188-.666c-1.65-.926-3.329-1.826-5.008-2.664-.84-.434-1.68-.869-2.548-1.275-1.072-.55-2.172-1.07-3.273-1.562a2.623,2.623,0,0,0-.492-.233c-.984-.462-1.969-.925-2.982-1.36-1.42-.609-2.837-1.216-4.257-1.8-1.621-.666-3.243-1.332-4.893-1.941-1.824-.693-3.648-1.361-5.5-1.968-1.853-.637-3.735-1.246-5.618-1.824s-3.763-1.1-5.675-1.621c-3.763-1.014-7.586-1.912-11.437-2.693-.058-.029-.144-.029-.2-.058-1.476-.291-2.952-.58-4.43-.811a1.276,1.276,0,0,0-.289-.058c-.637-.116-1.3-.232-1.969-.318-2.751-.465-5.53-.84-8.338-1.159-.318-.058-.666-.086-1.014-.115-.81-.116-1.621-.174-2.46-.26-1.853-.174-3.707-.319-5.589-.434-1.939-.145-3.909-.232-5.877-.289-2.057-.088-4.112-.116-6.167-.116-5.444,0-10.83.232-16.157.724-1.275.088-2.519.2-3.765.348-1.3.144-2.605.289-3.907.463s-2.607.347-3.881.55c-1.3.2-2.577.406-3.88.637-1.1.174-2.228.377-3.329.608q-4.083.781-8.078,1.736-1.869.434-3.736.955c-1.244.319-2.49.666-3.706,1.014-2.056.578-4.054,1.216-6.052,1.853h-.029c-1.62.55-3.271,1.1-4.864,1.65a.218.218,0,0,0-.115.058c-1.651.58-3.243,1.188-4.865,1.824-.086.029-.174.058-.26.088-1.476.578-2.953,1.187-4.4,1.8-1.824.752-3.619,1.564-5.386,2.374-1.5.695-2.982,1.39-4.429,2.113-1.564.783-3.126,1.564-4.661,2.375l-.174.086c-1.477.781-2.953,1.593-4.4,2.431-1.506.84-2.982,1.709-4.46,2.635h-.029c-1.39.84-2.751,1.679-4.112,2.548-.521.319-1.013.666-1.535,1.014-1.447.926-2.837,1.882-4.255,2.866-1.738,1.188-3.418,2.433-5.1,3.677-1.476,1.1-2.923,2.23-4.343,3.359a182.412,182.412,0,0,0-22.757,21.57c-2.461,2.722-4.778,5.5-7.036,8.34-1.912,2.431-3.763,4.893-5.53,7.442q-2.389,3.322-4.608,6.768,2.22-3.443,4.608-6.768c.463-.059.926-.117,1.39-.145,2.605-.2,5.356-.117,7.7-1.246,2.171-1.07,3.706-3.011,5.675-4.4,5.038-3.591,13.29-4.257,14.651-10.279.463-2.027-.088-4.227.665-6.167,1.42-3.62,6.255-4.14,10.135-4.081,1.65,0,3.589.23,4.343,1.679a4.139,4.139,0,0,1-.174,3.358,31.467,31.467,0,0,1-13.29,16.331c-5.038,3.069-11.611,5.444-13,11.175.695,1.941,4.227,1.8,4.517,3.822.2,1.621-1.882,2.461-2.635,3.91-1.1,2.113,1.418,4.69,3.822,4.573s4.4-1.853,6.167-3.474c5.27-4.893,10.8-10.162,12.711-17.111.81-2.867,1.1-6.226,3.415-8.137,2.752-2.259,7.673-.695,8.6,2.751,2.287-1.275,5.849-2.23,7.036.145a12.245,12.245,0,0,1,.492,2.72c.752,3.707,5.821,5.386,6.341,9.121.609,4.314-4.923,6.544-9.237,7.21-3.909.607-7.817,1.216-11.726,1.853a10.829,10.829,0,0,0-4.864,1.564c-1.391,1.042-2.259,3.011-1.449,4.546a11.557,11.557,0,0,0,2.027,2.085c3.244,3.243.58,9.931-4,10.076-1.564.058-3.1-.521-4.661-.578-4.634-.2-8.311,3.879-10.51,7.961s-3.851,8.745-7.557,11.523c-5.966,4.488-16.245,3.447-19.139,10.338-1.159,2.779-.551,5.906-.088,8.889.465,2.953.666,6.254-1.072,8.715-1.708,2.431-6.166,2.952-7.44.232a6.686,6.686,0,0,1-.173-3.851c.693-4.286,1.36-8.571,2.026-12.855.492-3.186.926-6.747-.955-9.352-2.634-3.648-8.541-3.3-11.958-.377-3.388,2.925-4.806,7.5-5.762,11.871-.695,3.243-1.506,7.817-3.3,11.523h0c-.608,3.591-1.1,7.239-1.476,10.916-.377,3.765-.637,7.5-.783,11.322a16.022,16.022,0,0,0,1.477-1.39c1.824-1.883,5.5-9.846,8.8-5.936a2.955,2.955,0,0,1,.059,3.62c-1.014,1.3-3.041,1.591-3.822,3.01-.955,1.68.376,3.765,1.939,4.865,1.564,1.129,3.474,1.824,4.575,3.417,2.113,3.04.088,7.643,2.143,10.742,1.765,2.663,5.53,2.837,8.744,3.185.377.058.724.117,1.1.174.9-6.37,3.88-11.553,12.566-13.523,11.986-2.722,27.738,7.21,34.483,16.245,7.528,10.1,11.09,24.407,22.613,29.474,8.253,3.62,19.979,2.318,24,10.4,3.591,7.239-2.663,15.374-3.62,23.395-.607,5.3,1.129,10.568,1.535,15.866.377,5.329-1.187,11.525-6.022,13.754-2.693,1.216-6.081,1.07-8.252,3.1-3.851,3.648-.695,11.176-4.546,14.825-1.361,1.275-3.243,1.738-4.894,2.577-8.656,4.373-8.424,17.112-4.4,25.944.145.318.291.607.434.926A182.936,182.936,0,0,0,304.076,412.7a182.1,182.1,0,0,0,85.849-21.368h.029a182.876,182.876,0,0,0,16.186-9.758A180.5,180.5,0,0,0,428.867,363.5,177.581,177.581,0,0,0,442.766,349c3.07-3.533,5.964-7.21,8.744-10.975,1.418-1.939,2.808-3.879,4.112-5.877a179.705,179.705,0,0,0,22.759-46.819,177.939,177.939,0,0,0,6.979-31.01c.55-4.112.984-8.281,1.273-12.478a10.536,10.536,0,0,1-7.354,3.271C474.877,245.053,471.257,241.375,469.491,237.322Z" transform="translate(-121.316 -46.832)" fill="#fafafa"/></g><g transform="translate(117.146 3.794)"><path d="M228.767,93.685c-3.626,2.165-5.555,6.256-8.349,9.422s-7.813,5.42-11.115,2.788a7.645,7.645,0,0,1-2.482-5.385,13.8,13.8,0,0,1,1.969-8.382c1.576-2.568,3.981-4.59,5.315-7.291s1.062-6.658-1.672-7.926c-1.479-.685-3.339-.417-4.651-1.383-2.359-1.738-.67-5.845,2.069-6.881s5.781-.234,8.7-.048c10.606.677,18.406-6.267,26.378-12.036,6.2-4.486,19.408-9.784,26.585-5.2,2.863,1.828,3.981,6.529,1.284,8.6-1.206.924-2.871,1.129-3.995,2.153-1.349,1.228-1.539,3.245-2.311,4.9-2.008,4.292-7.8,5.851-9.661,10.208-1.121,2.623-.615,5.885-2.345,8.155-1.371,1.8-3.75,2.434-5.949,2.956l-13.83,3.288A20.756,20.756,0,0,0,228.767,93.685Z" transform="translate(-206.661 -49.601)" fill="#ebebeb"/></g><g transform="translate(148.363 118.285)"><path d="M343.964,287.94c-4.588,6.914-5.422,15.554-6.695,23.752s-3.461,16.913-9.761,22.313-17.871,5.079-21.339-2.459c-1.883-4.092-.917-8.918-1.943-13.3-1.338-5.712-5.885-10.121-8.043-15.577-1.841-4.654-1.845-9.8-2-14.8-.82-27.342-7.487-55.877-26.1-75.919-2.286-2.463-4.882-4.861-8.13-5.723a10.384,10.384,0,0,0-10.682,3.684c-1.5,1.979-2.265,4.5-4.1,6.176-3.977,3.632-10.923,1.029-13.58-3.658s-2.289-10.428-1.843-15.8q.824-9.985,1.653-19.968c.288-3.482.678-7.22,2.964-9.862,3.248-3.758,9.077-3.935,13.053-6.913,5.212-3.9,5.907-11.353,9.193-16.976s13.576-8,15.1-1.667c10.882-23.292,34.929,11.311,49.229,8.708,4.151-.755,8.209-2.749,12.389-2.165,7.382,1.033,11.193,9.166,13.705,16.183q6.252,17.474,12.506,34.945c1.588,4.436,3.64,9.369,8.034,11.072,3.367,1.306,7.28.31,10.674,1.545,8.973,3.265,6.056,17.386-1.165,23.634s-17.356,10.19-20.788,19.1c-2.586,6.713-.524,14.579-3.306,21.213C351,280.221,346.809,283.652,343.964,287.94Z" transform="translate(-229.439 -133.14)" fill="#ebebeb"/></g><g transform="translate(273.326 256.268)"><path d="M344.244,258.23c-2.948.413-6.429-1.043-8.67.918-1.307,1.143-1.6,3.021-2.116,4.679a9.982,9.982,0,0,1-4.179,5.707,6.274,6.274,0,0,1-6.82-.123c-1.923-1.455-2.509-4.56-.936-6.388a31.732,31.732,0,0,1,2.545-2.08c3.914-3.7,1.234-10.558,4.21-14.955,1.754-2.593,4.516-5.224,6.444-7.852,1.482-2.02,2.026-3.622,4.752-4.16C351.4,231.629,356.791,256.473,344.244,258.23Z" transform="translate(-320.619 -233.82)" fill="#ebebeb"/></g><g transform="translate(81.095 334.888)" opacity="0.6"><path d="M180.357,291.185q2.309,1.558,4.673,3.037c1.1.695,2.2,1.361,3.329,2.027-1.129-.666-2.23-1.332-3.329-2.027Q182.662,292.746,180.357,291.185Z" transform="translate(-180.357 -291.185)" fill="#263238"/></g><g transform="translate(0.064 175.289)" opacity="0.6"><path d="M121.347,174.762v-.029h0v.029c-.029.347-.058.666-.058,1.013-.044,1.085-.04,2.2-.058,3.3.018-1.1.014-2.216.058-3.3C121.29,175.428,121.318,175.109,121.347,174.762Z" transform="translate(-121.232 -174.733)" fill="#263238"/></g><g transform="translate(0 37.751)"><g transform="translate(0.093 150.537)"><path d="M145.053,226.956c-.58-5.241,1.158-10.482,1.244-15.781.059-3.647-.2-7.5-.26-11.175a50.311,50.311,0,0,1-9.293-1.3,2.782,2.782,0,0,1-1.708-.869,3.383,3.383,0,0,1-.377-1.941c-.232-4.11-4.2-6.832-7.76-8.888a30.92,30.92,0,0,0-5.646-2.781c0,.434,0,.84.029,1.275a182.316,182.316,0,0,0,11.64,58.053A175.317,175.317,0,0,0,144.1,267.52c1.8,3.329,3.763,6.6,5.819,9.816,2.548,3.966,5.212,7.846,8.079,11.582,2.663,3.589,5.5,7.092,8.483,10.452a181.441,181.441,0,0,0,12.942,13.319q6.038,5.647,12.595,10.713c-9.988-26.811-19.4-54.173-36.482-76.988C151.046,240.447,145.893,234.368,145.053,226.956Z" transform="translate(-121.253 -184.218)" fill="#ebebeb"/></g><g transform="translate(0 129.147)"><path d="M146.382,198.689c-.377-.058-.724-.117-1.1-.174-3.214-.348-6.979-.522-8.744-3.185-2.056-3.1-.03-7.7-2.143-10.742-1.1-1.593-3.011-2.287-4.575-3.417-1.564-1.1-2.895-3.185-1.939-4.865.781-1.418,2.808-1.708,3.822-3.01a2.955,2.955,0,0,0-.059-3.62c-3.3-3.91-6.977,4.053-8.8,5.936a15.844,15.844,0,0,1-1.477,1.39v.029c-.029.347-.058.665-.058,1.013-.044,1.085-.04,2.2-.058,3.3s-.058,2.2-.058,3.3c0,.9-.015.851,0,1.746s.058,2.727.086,3.61a30.923,30.923,0,0,1,5.646,2.781c3.561,2.056,7.528,4.776,7.76,8.888a3.385,3.385,0,0,0,.377,1.941,2.782,2.782,0,0,0,1.708.869,50.312,50.312,0,0,0,9.293,1.3" transform="translate(-121.185 -168.61)" fill="#ebebeb"/></g><g transform="translate(23.775 145.245)"><path d="M139.635,201.43c.058,3.677.319,7.528.26,11.175-.086,5.3-1.824,10.541-1.244,15.781.84,7.412,5.993,13.491,10.482,19.457,17.082,22.815,26.493,50.177,36.482,76.988h.029c1.854,1.477,3.736,2.867,5.646,4.228q2.259,1.628,4.564,3.188t4.673,3.037c1.1.695,2.2,1.361,3.329,2.027-.144-.319-.289-.609-.434-.926-4.025-8.832-4.255-21.57,4.4-25.944,1.65-.84,3.533-1.3,4.894-2.577,3.851-3.648.695-11.176,4.546-14.825,2.171-2.027,5.559-1.882,8.252-3.1,4.835-2.23,6.4-8.426,6.022-13.754-.406-5.3-2.142-10.568-1.535-15.866.957-8.02,7.21-16.156,3.619-23.395-4.024-8.078-15.75-6.776-24-10.4-11.523-5.067-15.085-19.369-22.613-29.474-6.746-9.034-22.5-18.966-34.483-16.245-8.686,1.969-11.668,7.153-12.566,13.523" transform="translate(-138.533 -180.356)" fill="#ebebeb"/></g><g transform="translate(2.438 13.06)"><path d="M132.027,162.752c3.417-2.925,9.324-3.271,11.958.377,1.882,2.605,1.447,6.166.955,9.352-.666,4.284-1.332,8.57-2.026,12.855a6.686,6.686,0,0,0,.173,3.851c1.275,2.72,5.733,2.2,7.44-.232,1.738-2.461,1.536-5.762,1.072-8.715-.463-2.984-1.072-6.11.088-8.889,2.895-6.891,13.173-5.849,19.139-10.338,3.706-2.778,5.356-7.44,7.557-11.523s5.877-8.165,10.51-7.961c1.562.058,3.1.636,4.661.578,4.575-.145,7.239-6.833,4-10.076a11.558,11.558,0,0,1-2.027-2.085c-.81-1.535.058-3.5,1.449-4.546a10.829,10.829,0,0,1,4.864-1.564c3.909-.637,7.817-1.246,11.726-1.853,4.314-.666,9.846-2.9,9.237-7.21-.521-3.735-5.589-5.413-6.341-9.121a12.245,12.245,0,0,0-.492-2.72c-1.187-2.375-4.749-1.42-7.036-.145-.926-3.445-5.848-5.009-8.6-2.751-2.316,1.91-2.605,5.27-3.415,8.137-1.912,6.948-7.442,12.218-12.711,17.111-1.767,1.621-3.763,3.359-6.167,3.474s-4.923-2.46-3.822-4.573c.754-1.449,2.838-2.289,2.635-3.91-.291-2.026-3.822-1.882-4.517-3.822,1.39-5.731,7.963-8.107,13-11.175a31.467,31.467,0,0,0,13.29-16.331,4.139,4.139,0,0,0,.174-3.358c-.754-1.449-2.693-1.679-4.343-1.679-3.88-.059-8.715.462-10.135,4.081-.752,1.941-.2,4.14-.665,6.167-1.361,6.022-9.613,6.688-14.651,10.279-1.969,1.39-3.5,3.33-5.675,4.4-2.346,1.129-5.1,1.043-7.7,1.246-.463.029-.926.086-1.39.145q-2.389,3.322-4.608,6.768t-4.281,6.984a181.047,181.047,0,0,0-15.866,35.384q-2.128,6.492-3.757,13.2t-2.759,13.586c1.8-3.706,2.607-8.281,3.3-11.523C127.221,170.252,128.639,165.677,132.027,162.752Z" transform="translate(-122.964 -83.907)" fill="#ebebeb"/></g><g transform="translate(174.164)"><path d="M439.6,231.6s-4.6,3.358-7.354,3.3c-4.4-.058-8.02-3.735-9.787-7.789-1.8-4.053-2.2-8.541-3.388-12.8-.637-2.287-1.708-4.72-3.851-5.733-1.418-.666-3.1-.578-4.6-1.043-5.415-1.62-6.891-9.177-12.015-11.523a17.413,17.413,0,0,0-5.154-1.072c-6.862-.81-13.956-3.184-18.27-8.57-1.419-1.738-2.49-3.794-4.227-5.212-1.767-1.418-4.488-2.027-6.2-.578,1.447,2.895,2.866,5.79,4.285,8.657,1.3,2.605,2.634,5.3,4.805,7.209,2.2,1.941,5.444,2.953,8.079,1.738.869-.406,1.736-1.072,2.722-.955a2.932,2.932,0,0,1,1.765,1.129c3.735,4.14,2.519,11-1.129,15.229-3.618,4.2-9,6.4-14.187,8.455-1.853.724-3.821,1.476-5.79,1.129-3.591-.666-5.5-4.575-6.544-8.078-2.345-7.76-3.474-16.186-8.281-22.73-1.534-2.056-3.445-3.937-4.372-6.34-.984-2.607-.754-5.646-2.316-7.934-1.621-2.4-5.068-3.794-5.3-6.688-.145-2.027,1.534-3.822,3.388-4.691,1.853-.9,3.937-1.158,5.848-1.939.754-.319,1.592-.869,1.621-1.68,0-1.216-1.679-1.708-2.113-2.837-.463-1.275.84-2.461,1.39-3.707,1.187-2.837-1.767-5.7-4.632-6.861-2.838-1.158-6.284-2-7.616-4.778a16.572,16.572,0,0,1-.925-4.14c-.666-3.5-3.244-6.891-6.776-7.471-3.562-.58-7.5,2.577-6.92,6.11.347,1.939,1.794,3.445,2.577,5.239.81,1.8.578,4.46-1.275,5.039-3.04.926-5.964-4.632-8.512-2.722,1.043,3.561,2.056,7.123,3.1,10.713-4,2.026-8.774-1.651-10.482-5.821-1.709-4.14-1.767-8.889-3.794-12.885-2.027-4.024-7.5-7.006-10.974-4.169-.174,5.154,6.63,7.239,9.641,11.409,2.172,3.011,1.853,7.9-1.361,9.814-3.185,1.912-8.252-1.418-7.035-4.921.434-1.217,1.447-2.23,1.562-3.533.117-1.621-1.244-2.925-2.489-3.966-1.941-1.65-3.881-3.273-5.821-4.894a12.231,12.231,0,0,0-4.14-2.605c-4-1.158-7.991,2.085-10.1,5.646-2.113,3.591-3.3,7.789-6.226,10.771-4.2,4.343-12.16,4.6-16.1.058-3.966-4.546-1.939-13.058,3.88-14.708,2.2-.608,4.98-.55,6.139-2.49,2.027-3.445-3.765-7.846-1.767-11.322,1.535-2.663,5.589-1.447,8.542-2.345,2.923-.9,4.575-3.851,6.311-6.4,1.709-2.519,4.4-5.067,7.413-4.4-.232-1.767-.463-3.677.318-5.27.781-1.621,2.982-2.664,4.43-1.621-1.476,2.433.291,5.819,2.867,7.036s5.588.926,8.426.607c2.837-.347,6.4-1.39,6.63-4.227.086-.926-.26-1.91.086-2.779,1.246-3.388,7.5,1.273,9.9-1.449,1.388-1.418-.145-3.937-2.086-4.4-1.91-.492-3.909.232-5.877.289-1.969.088-4.373-.955-4.46-2.923-.086-1.941,2.085-3.33,2.316-5.241.377-3.243-5.124-4.083-7.065-1.449-1.911,2.635-1.244,6.255-.665,9.469.607,3.214.9,7.006-1.477,9.265-1.014,1.535-3.648.724-4.517-.9-.9-1.623-.695-3.592-.84-5.415-.144-1.854-.955-3.939-2.749-4.431-1.246-.347-2.578.26-3.851.434-5.038.609-8.542-5.906-6.95-10.712,1.564-4.837,6.138-7.934,10.569-10.4,3.243-1.8,7.266-3.474,10.48-1.65,1.506.839,2.549,2.287,4.025,3.156,2.548,1.5,5.7.955,8.629,1.013a20.092,20.092,0,0,1,12.595,4.894c1.3,1.185,2.519,3.155,1.506,4.575-1.1,1.5-4.257,1.823-3.707,3.589a6.278,6.278,0,0,0,7.876-5.067,5.269,5.269,0,0,1,3.04,4.286c3.677-3.736,10.742-3.185,13.753,1.129.811,1.129,1.39,2.489,2.548,3.271,1.158.752,3.185.376,3.33-.985a2.783,2.783,0,0,0-.232-1.273c-.695-1.969-1.418-3.909-2.113-5.849,2.693-1.447,5.877.811,7.7,3.244,6.776,9.062,11.611,3.618,21.166,5.1,6.456.984,9.295,5.124,12.942,10.134,11.177,15.4,25.944,28.028,36.106,44.126,1.072,1.679,2.056,3.388,2.982,5.124h0v.029q1.3,3.474,2.457,7t2.176,7.1a160.358,160.358,0,0,1,4.387,17.959s1.27,10.346,1.577,13.717c.234,2.579.463,5.161.6,7.76s.221,5.212.234,7.846Z" transform="translate(-248.265 -74.377)" fill="#ebebeb"/></g></g></g><path d="M488.106,230.05s-.049-1.009-.111-2.978c-.03-.987-.067-2.212-.111-3.669s-.074-3.152-.26-5.065l-.506-6.422c-.24-2.359-.62-4.926-.965-7.713-.783-5.562-1.994-11.934-3.732-19.021a182.128,182.128,0,0,0-7.527-23.067,177.308,177.308,0,0,0-12.776-25.863A185.693,185.693,0,0,0,415.5,84.094a183.015,183.015,0,0,0-77.236-34.279,186.443,186.443,0,0,0-71.874.824A180.94,180.94,0,0,0,218.008,68.3,193.507,193.507,0,0,0,195.416,82.6a201,201,0,0,0-20.693,17.822,197.93,197.93,0,0,0-18.114,21.141,180.605,180.605,0,0,0-14.952,24.066c-1.054,2.137-2.246,4.213-3.193,6.411L135.5,158.6c-1.769,4.466-3.6,8.932-5.059,13.55a178.526,178.526,0,0,0-6.984,28.365,198.035,198.035,0,0,0-2.4,29.51,198.161,198.161,0,0,0,2.392,29.519,178.8,178.8,0,0,0,6.981,28.376l1.162,3.437.581,1.716.662,1.684q1.328,3.365,2.652,6.717,1.484,3.285,2.963,6.557c.946,2.2,2.139,4.276,3.193,6.414A180.455,180.455,0,0,0,156.6,338.516a197.584,197.584,0,0,0,18.117,21.148,200.919,200.919,0,0,0,20.695,17.828,183.771,183.771,0,0,0,46.46,24.98,195.755,195.755,0,0,0,24.525,6.991,186.4,186.4,0,0,0,71.88.82A183.02,183.02,0,0,0,415.51,376a185.7,185.7,0,0,0,46.615-52.159A177.348,177.348,0,0,0,474.9,297.976a182.192,182.192,0,0,0,7.524-23.064,193.766,193.766,0,0,0,3.732-19.02c.344-2.786.724-5.353.963-7.71q.28-3.546.506-6.422c.186-1.913.225-3.606.26-5.064s.081-2.681.111-3.667c.062-1.969.111-2.978.111-2.978s0,1.009-.038,2.979q-.031,1.48-.075,3.67c-.023,1.46-.051,3.154-.225,5.069q-.212,2.878-.471,6.429c-.229,2.361-.6,4.932-.932,7.724a191.812,191.812,0,0,1-3.673,19.058,181.458,181.458,0,0,1-7.478,23.122,177.159,177.159,0,0,1-12.746,25.941A185.849,185.849,0,0,1,415.816,376.4a183.449,183.449,0,0,1-77.434,34.466,186.959,186.959,0,0,1-72.122-.773,181.545,181.545,0,0,1-48.572-17.7A194.175,194.175,0,0,1,195,378.04a201.609,201.609,0,0,1-20.778-17.888,198.076,198.076,0,0,1-18.191-21.222,181.065,181.065,0,0,1-15.015-24.162c-1.058-2.146-2.257-4.229-3.207-6.439l-2.975-6.58q-1.328-3.365-2.663-6.744l-.666-1.69-.582-1.723-1.168-3.45a179.57,179.57,0,0,1-7.01-28.487,198.957,198.957,0,0,1-2.4-29.633,198.482,198.482,0,0,1,2.411-29.623,179,179,0,0,1,7.014-28.476c1.465-4.636,3.3-9.118,5.08-13.6q1.49-3.3,2.974-6.58c.952-2.207,2.149-4.29,3.208-6.435a181.3,181.3,0,0,1,15.014-24.155,198.548,198.548,0,0,1,18.188-21.215,201.686,201.686,0,0,1,20.777-17.882A184.422,184.422,0,0,1,241.645,57.01a196.181,196.181,0,0,1,24.612-7,186.9,186.9,0,0,1,72.116-.776A183.423,183.423,0,0,1,415.8,83.692a185.874,185.874,0,0,1,46.658,52.355,177.2,177.2,0,0,1,12.748,25.942,181.43,181.43,0,0,1,7.479,23.125,191.759,191.759,0,0,1,3.673,19.06c.336,2.792.7,5.363.932,7.726q.261,3.548.473,6.43c.174,1.916.2,3.61.225,5.071s.055,2.682.075,3.67C488.1,229.041,488.106,230.05,488.106,230.05Z" transform="translate(-120.344 -46.062)" fill="#263238"/></g><g transform="translate(96.477 75.95)"><g transform="translate(177.467 36.265)"><path d="M235.664,142.983l-1.017-48.651-16.587,8.521-7.021,29.266Z" transform="translate(-211.039 -94.331)" fill="#263238"/></g><g transform="translate(159.228 103.829)"><path d="M221.62,146.943l-17.346,8.708-6.543-.761,11.426-9.006,11.247-2.255Z" transform="translate(-197.731 -143.629)" fill="#263238"/></g><g transform="translate(0 77.87)"><path d="M146.671,124.688,81.549,175.259l73.28-47.179Z" transform="translate(-81.549 -124.688)" fill="#e0e0e0"/></g><g transform="translate(0 77.519)"><path d="M187.348,138.44c-.988.493-95.416,38.067-95.416,38.067l-10.383-1.153,71.687-50.923Z" transform="translate(-81.549 -124.432)" fill="#263238"/></g><g transform="translate(75.661 93.696)"><path d="M2.021,0H12.064a2.021,2.021,0,0,1,2.021,2.021V3.639a2.02,2.02,0,0,1-2.02,2.02H2.02A2.02,2.02,0,0,1,0,3.639V2.021A2.021,2.021,0,0,1,2.021,0Z" transform="translate(13.043 10.558) rotate(-157.821)" fill="#455a64"/></g><g transform="translate(30.478 115.236)"><path d="M2.021,0H12.064a2.021,2.021,0,0,1,2.021,2.021V3.638a2.021,2.021,0,0,1-2.021,2.021H2.02A2.02,2.02,0,0,1,0,3.639V2.021A2.021,2.021,0,0,1,2.021,0Z" transform="translate(13.043 10.558) rotate(-157.821)" fill="#455a64"/></g><g transform="translate(35.24 83.891)"><path d="M117.759,129.082S146.175,133,142.2,147.9s-32.014-.795-32.014-.795-4.151-2.385-2.561-10.334S117.759,129.082,117.759,129.082Z" transform="translate(-107.262 -129.081)" fill="#f40076"/><g transform="translate(1.92 1.261)"><path d="M109.5,135.945a9.793,9.793,0,0,1,3.029-4.911c1.553-1.187,3.928-1.475,5.414-.207l.789.5a8.017,8.017,0,0,1,1.619,8.311l.292-.9a12.323,12.323,0,0,1-4.772,7.631,4.5,4.5,0,0,1-2.259.991,3.805,3.805,0,0,1-2.811-1.181,7.477,7.477,0,0,1-2.116-4.883A14.2,14.2,0,0,1,109.5,135.945Z" transform="translate(-108.663 -130.001)" fill="#263238"/></g></g><g transform="translate(4.252 16.713)"><g transform="translate(0.328 0.339)"><path d="M297.35,154.808s11.6,11.6-10.469,14.431-60.274,1.414-103.287-13.3-81.3-35.348-88.006-40.748c-4.975-4.01-12.949-10.867-10.1-20.7A16.773,16.773,0,0,1,95.944,83.623c6.474-2.39,17.493-5.038,29.64-1.823C144.826,86.893,297.35,154.808,297.35,154.808Z" transform="translate(-84.891 -80.313)" fill="#fff"/></g><path d="M297.438,154.9s-.4-.152-1.157-.476l-3.36-1.454-12.907-5.645-47.478-20.747c-20.064-8.714-43.96-19.082-70.64-30.242-6.68-2.763-13.523-5.605-20.562-8.379-3.5-1.435-7.1-2.715-10.705-4.091-1.831-.576-3.652-1.228-5.515-1.75a44.562,44.562,0,0,0-5.729-1.05,50.751,50.751,0,0,0-23.414,3.055,16.833,16.833,0,0,0-8.886,7.708,14.153,14.153,0,0,0-.81,11.732c1.468,3.837,4.355,6.938,7.421,9.609a59.713,59.713,0,0,0,10.065,6.874c7.029,4.057,14.149,7.727,21.209,11.19,14.13,6.913,28.068,12.946,41.543,18.174a338.1,338.1,0,0,0,38.965,12.776,263.958,263.958,0,0,0,35.117,6.518,220.434,220.434,0,0,0,29.428,1.568c4.34-.033,8.374-.3,12.078-.589a66.836,66.836,0,0,0,10.039-1.458c2.914-.774,5.534-1.852,7.035-3.663a5.174,5.174,0,0,0,1.211-2.9,6.7,6.7,0,0,0-.4-2.616,11.935,11.935,0,0,0-1.762-3.174c-.5-.656-.785-.968-.785-.968a7.7,7.7,0,0,1,.843.922,11.6,11.6,0,0,1,1.841,3.17,6.812,6.812,0,0,1,.441,2.678,5.375,5.375,0,0,1-1.225,3.025c-1.54,1.887-4.2,2.993-7.129,3.8a66.41,66.41,0,0,1-10.079,1.529c-3.711.314-7.753.6-12.1.648a218.678,218.678,0,0,1-29.492-1.465,262.7,262.7,0,0,1-35.2-6.447,336.279,336.279,0,0,1-39.057-12.736c-13.5-5.218-27.46-11.245-41.613-18.159-7.073-3.463-14.2-7.135-21.258-11.2a60.411,60.411,0,0,1-10.176-6.95c-3.1-2.707-6.081-5.877-7.621-9.894A14.87,14.87,0,0,1,86.454,91.5a17.544,17.544,0,0,1,9.263-8.038,51.42,51.42,0,0,1,23.748-3.086,45.245,45.245,0,0,1,5.818,1.07c1.889.53,3.726,1.19,5.577,1.773,3.611,1.381,7.221,2.67,10.723,4.109,7.044,2.783,13.886,5.633,20.566,8.405,26.673,11.2,50.548,21.613,70.588,30.385l47.389,20.956,12.853,5.767,3.337,1.521C297.067,154.707,297.438,154.9,297.438,154.9Z" transform="translate(-84.652 -80.065)" fill="#263238"/></g><g transform="translate(149.658 65.062)"><g transform="translate(0 2.781)"><path d="M221.941,128.886v4.533l-31.193-13.44,4.79-2.607Z" transform="translate(-190.748 -117.372)" fill="#263238"/></g><g transform="translate(25.922 10.332)"><path d="M212.505,124.3v7.725l-2.843-1.236v-7.91Z" transform="translate(-209.662 -122.881)" fill="#fff"/></g><g transform="translate(19.927 7.053)"><path d="M208.131,121.911v7.725l-2.843-1.236v-7.91Z" transform="translate(-205.288 -120.489)" fill="#fff"/></g><g transform="translate(13.933 4.757)"><path d="M203.756,120.235v7.725l-2.843-1.236v-7.91Z" transform="translate(-200.914 -118.814)" fill="#fff"/></g><g transform="translate(2.135)"><path d="M195.148,116.764v7.725l-2.843-1.236v-7.91Z" transform="translate(-192.305 -115.343)" fill="#fff"/></g></g><g transform="translate(112.34 0.338)"><path d="M327.292,69.4l-133.7,72.771-30.075-14.426L311.246,68.117Z" transform="translate(-163.519 -68.117)" fill="#263238"/></g><g transform="translate(112.34)"><g transform="translate(0 0.338)"><path d="M169.172,115.915l142.075-47.8L163.519,127.745" transform="translate(-163.519 -68.117)" fill="#fff"/></g><g transform="translate(0.001)"><path d="M163.519,127.837s.241-.125.726-.333c.511-.215,1.228-.517,2.159-.91l8.33-3.435,30.682-12.506L306.744,69.641l4.369-1.762.247.669L210.688,102.3l-30.373,10.1-8.253,2.707-2.15.687c-.485.151-.74.211-.74.211s.24-.106.717-.28l2.128-.752,8.211-2.831,30.3-10.313,100.6-33.96.247.669L307.011,70.3,205.6,111.12c-12.972,5.185-23.477,9.384-30.766,12.3l-8.379,3.311-2.186.843C163.778,127.758,163.519,127.837,163.519,127.837Z" transform="translate(-163.519 -67.87)" fill="#263238"/></g></g><g transform="translate(203.378 29.992)"><rect width="14.085" height="5.659" rx="2.021" transform="translate(11.333 12.917) rotate(-143.572)" fill="#455a64"/></g><g transform="translate(209.183 70.655)"><path d="M285.875,120.034c-.456.3-42.506,21.939-42.506,21.939l-9.188-5.146,40.282-17.4Z" transform="translate(-234.181 -119.424)" fill="#263238"/></g><g transform="translate(204.251 70.656)"><path d="M275.035,119.424h-2.891l-41.562,15.217,4.932,2.186Z" transform="translate(-230.582 -119.424)" fill="#fff"/></g><g transform="translate(46.847 21.895)"><path d="M182.108,111.988l-3.906,2.951L115.731,88.247l.71-4.4Z" transform="translate(-115.731 -83.846)" fill="#263238"/></g><g transform="translate(106.908 45.121)"><path d="M162.4,102.214v7.725l-2.843-1.236v-7.91Z" transform="translate(-159.555 -100.793)" fill="#fff"/></g><g transform="translate(100.533 42.231)"><path d="M157.746,100.105v7.725l-2.843-1.236v-7.91Z" transform="translate(-154.904 -98.684)" fill="#fff"/></g><g transform="translate(94.157 39.341)"><path d="M153.094,98v7.725l-2.843-1.236v-7.91Z" transform="translate(-150.252 -96.575)" fill="#fff"/></g><g transform="translate(87.782 36.45)"><path d="M148.442,95.888v7.725l-2.843-1.236v-7.91Z" transform="translate(-145.599 -94.466)" fill="#fff"/></g><g transform="translate(81.406 33.56)"><path d="M143.79,93.779V101.5l-2.843-1.236v-7.91Z" transform="translate(-140.947 -92.357)" fill="#fff"/></g><g transform="translate(75.03 30.67)"><path d="M139.138,91.67v7.725L136.3,98.159v-7.91Z" transform="translate(-136.295 -90.248)" fill="#fff"/></g><g transform="translate(68.655 28.295)"><path d="M134.486,89.937v7.725l-2.843-1.236v-7.91Z" transform="translate(-131.643 -88.516)" fill="#fff"/></g><g transform="translate(157.807 67.433)"><path d="M199.537,118.495v7.725l-2.843-1.236v-7.91Z" transform="translate(-196.694 -117.073)" fill="#fff"/></g><g transform="translate(62.279 25.579)"><path d="M129.834,87.955V95.68l-2.843-1.236v-7.91Z" transform="translate(-126.991 -86.534)" fill="#fff"/></g><g transform="translate(55.818 23.029)"><path d="M125.12,86.095V93.82l-2.843-1.236v-7.91Z" transform="translate(-122.277 -84.673)" fill="#fff"/></g><g transform="translate(49.358 20.479)"><path d="M120.406,84.234v7.725l-2.843-1.236v-7.91Z" transform="translate(-117.563 -82.812)" fill="#fff"/></g><g transform="translate(15.633 18.025)"><path d="M110.124,85.475S99.438,82.317,92.956,83.36A25.785,25.785,0,0,1,99.073,81.5s4.027-1.454,12.045.693Z" transform="translate(-92.956 -81.022)" fill="#263238"/></g><g transform="translate(158.984 106.292)"><path d="M197.731,154.214l7.965-8.762,3.814.3Z" transform="translate(-197.487 -145.418)" fill="#e0e0e0"/><path d="M197.553,154.441l.218-.24,7.976-8.774h.016l3.907.3-.077.055Zm8.222-8.944-7.734,8.509,11.437-8.222Z" transform="translate(-197.553 -145.427)" fill="#263238"/></g><g transform="translate(175.423 44.919)"><rect width="14.085" height="5.659" rx="2.021" transform="translate(11.333 12.917) rotate(-143.572)" fill="#455a64"/></g><g transform="translate(232.983 14.093)"><path d="M2.02,0H12.065a2.02,2.02,0,0,1,2.02,2.02V3.638a2.021,2.021,0,0,1-2.021,2.021H2.022A2.022,2.022,0,0,1,0,3.638V2.02A2.02,2.02,0,0,1,2.02,0Z" transform="matrix(-0.805, -0.594, 0.594, -0.805, 11.333, 12.917)" fill="#455a64"/></g><g transform="translate(140.471 32.995)"><path d="M196.444,92.105s27.351,8.647,20.925,22.668-31.423-6.171-31.423-6.171-3.692-3.049-.787-10.617S196.444,92.105,196.444,92.105Z" transform="translate(-184.045 -91.945)" fill="#f40076"/><g transform="translate(1.813 1.053)"><path d="M187.116,97.619a9.788,9.788,0,0,1,3.811-4.329c1.73-.909,4.12-.794,5.371.707l.693.625a8.012,8.012,0,0,1,.2,8.464l.439-.841a12.318,12.318,0,0,1-5.986,6.718,4.5,4.5,0,0,1-2.394.6,3.808,3.808,0,0,1-2.572-1.639,7.483,7.483,0,0,1-1.264-5.168A14.2,14.2,0,0,1,187.116,97.619Z" transform="translate(-185.367 -92.713)" fill="#263238"/></g></g><g transform="translate(20.974 38.928)" opacity="0.1"><path d="M100.656,96.577c3.861-1.084,7.321.946,10.515,2.87,50.2,30.265,106.392,54.43,164.949,54.293a3.3,3.3,0,0,1,3.064,2.037h0a3.305,3.305,0,0,1-2.918,4.554,276,276,0,0,1-175.777-53.886c-1.884-1.4-3.914-3.085-3.6-5.711A5.072,5.072,0,0,1,100.656,96.577Z" transform="translate(-96.853 -96.274)"/></g></g><g transform="translate(183.992 114.778)"><g transform="translate(0 135.391)"><path d="M172.449,208.512a13.522,13.522,0,1,0-25.178,6.831h-.007l.038.052c.518.873,1.168,1.5,1.824,2.416l7.852,10.4a2.441,2.441,0,0,0,3.9,0l7.72-10.228a28.977,28.977,0,0,0,1.964-2.6l.027-.037h0A13.435,13.435,0,0,0,172.449,208.512ZM158.928,214.4a5.951,5.951,0,1,1,5.951-5.951A5.951,5.951,0,0,1,158.928,214.4Z" transform="translate(-145.405 -194.989)" fill="#f40076"/></g><g transform="translate(271.726)"><path d="M403.743,126.236a30.035,30.035,0,1,0-55.925,15.174H347.8l.085.112c1.151,1.941,2.594,3.329,4.053,5.368l17.44,23.1a5.423,5.423,0,0,0,8.658,0l17.148-22.72a64.614,64.614,0,0,0,4.362-5.779l.062-.081H399.6A29.859,29.859,0,0,0,403.743,126.236Zm-30.036,13.077a13.219,13.219,0,1,1,13.219-13.219A13.219,13.219,0,0,1,373.707,139.313Z" transform="translate(-343.672 -96.201)" fill="#f40076"/></g></g><g transform="translate(106.878 381.976)"><g transform="translate(0 0.001)"><path d="M89.138,291.164,106.3,325.459l75.983,63.871L200.967,365l-74.605-62.279Z" transform="translate(-89.138 -291.164)" fill="#f40076"/></g><g opacity="0.7"><path d="M126.362,302.726a2.269,2.269,0,0,1-2.855,2.187,6.825,6.825,0,0,1-7.446,10.573,7.962,7.962,0,0,1-9.884,9.715l-17.04-34.038Z" transform="translate(-89.138 -291.164)" fill="#fff"/></g><path d="M96.041,304.957s7.24,1.24,8.348-9.056l-15.251-4.736Z" transform="translate(-89.138 -291.164)" fill="#f40076"/><g transform="translate(17.04 24.322)" opacity="0.3"><path d="M111.455,308.911l74.821,61.935-8.6,11.91L101.7,318.884l-.126-.258a7.656,7.656,0,0,0,3.495.193,8.267,8.267,0,0,0,4.113-2.013,7.861,7.861,0,0,0,2.5-4.924A8.018,8.018,0,0,0,111.455,308.911Z" transform="translate(-101.571 -308.911)"/></g><g transform="translate(34.37 11.562)" opacity="0.3"><path d="M114.216,301.787,189.28,365l2.4-3.119-74.6-62.279a2.413,2.413,0,0,1-2.3,2.3A2.657,2.657,0,0,1,114.216,301.787Z" transform="translate(-114.216 -299.6)"/></g><g transform="translate(12.968 15.286)"><path d="M104.285,309.634a.618.618,0,0,0,.347.238.831.831,0,0,0,.965-.551,3.193,3.193,0,0,0-.085-1.93,1.964,1.964,0,0,0-.683-.976,1.31,1.31,0,0,0-1.253-.21,1.761,1.761,0,0,0-.92,1.1,5.689,5.689,0,0,0-.282,1.614,8.775,8.775,0,0,0,.508,3.577,2.253,2.253,0,0,0,1.255,1.36,1.992,1.992,0,0,0,1.846-.415,5.32,5.32,0,0,0,1.443-3.9,7.6,7.6,0,0,0-3.947-6.844,1.972,1.972,0,0,0-1.749.041,3.64,3.64,0,0,0-1.25,1.191,10.614,10.614,0,0,0-1.316,2.884,11.645,11.645,0,0,0-.377,4.577c.071.541.153.959.218,1.24s.093.43.093.43a8.421,8.421,0,0,1-.393-1.66,11.426,11.426,0,0,1,.314-4.63,10.642,10.642,0,0,1,1.316-2.942,3.8,3.8,0,0,1,1.309-1.257,2.168,2.168,0,0,1,1.91-.058,7.768,7.768,0,0,1,4.084,7.029,7.617,7.617,0,0,1-.359,2.212,3.92,3.92,0,0,1-1.165,1.847,2.2,2.2,0,0,1-2.045.444,2.439,2.439,0,0,1-1.369-1.476,8.877,8.877,0,0,1-.5-3.663,5.79,5.79,0,0,1,.306-1.661,1.908,1.908,0,0,1,1.018-1.177,1.446,1.446,0,0,1,1.388.241,2.081,2.081,0,0,1,.714,1.046,3.237,3.237,0,0,1,.049,2,.885.885,0,0,1-1.054.561A.469.469,0,0,1,104.285,309.634Z" transform="translate(-98.6 -302.318)" fill="#fff"/></g><g transform="translate(16.509 7.091)"><path d="M106.418,296.338c.025.01-.166.406-.314,1.172a8.272,8.272,0,0,0,.1,3.271,21.009,21.009,0,0,0,1.713,4.583,18.327,18.327,0,0,1,1.924,5.716,10.414,10.414,0,0,1-1.143,5.893A10.142,10.142,0,0,1,102.383,322a6.722,6.722,0,0,1-1.2.222,1.864,1.864,0,0,1,.306-.077c.2-.041.5-.112.87-.225a10.586,10.586,0,0,0,2.963-1.421,10.061,10.061,0,0,0,3.206-3.615,10.309,10.309,0,0,0,1.106-5.779,18.494,18.494,0,0,0-1.891-5.656,20.578,20.578,0,0,1-1.683-4.635,8.044,8.044,0,0,1-.037-3.318A4.59,4.59,0,0,1,106.418,296.338Z" transform="translate(-101.184 -296.338)" fill="#fff"/></g><g transform="translate(28.239 9.288)"><path d="M111.851,297.941a3.177,3.177,0,0,0-1.4,1.747,17.833,17.833,0,0,0-.476,5.534,30.586,30.586,0,0,0,.7,5.546c.152.7.3,1.261.4,1.65a3.622,3.622,0,0,1,.144.609,3.7,3.7,0,0,1-.223-.585c-.125-.382-.3-.94-.467-1.639a27,27,0,0,1-.765-5.574,26.711,26.711,0,0,1,.07-3.1,9.025,9.025,0,0,1,.476-2.5,3.137,3.137,0,0,1,.992-1.4A1.9,1.9,0,0,1,111.851,297.941Z" transform="translate(-109.743 -297.941)" fill="#fff"/></g><g transform="translate(32.486 15.33)"><path d="M113.98,309.641a5.848,5.848,0,0,1-.548-1.14,6.959,6.959,0,0,1-.58-3.006,3.535,3.535,0,0,1,1.376-2.694,2.506,2.506,0,0,1,.846-.406.84.84,0,0,1,.341-.04,3.854,3.854,0,0,0-1.1.565,3.524,3.524,0,0,0-1.253,2.59,7.563,7.563,0,0,0,.507,2.938A10.349,10.349,0,0,1,113.98,309.641Z" transform="translate(-112.842 -302.35)" fill="#fff"/></g><g transform="translate(11.3 5.137)"><path d="M102.862,294.912a.567.567,0,0,1,.082.163c.047.111.117.273.193.488a2.3,2.3,0,0,1,.158.825,2.45,2.45,0,0,1-.321,1.066c-.359.741-.954,1.516-1.524,2.415a20.3,20.3,0,0,0-1.586,3.082,40.036,40.036,0,0,0-1.853,6.038c-.162.684-.307,1.3-.441,1.869a4.338,4.338,0,0,1-.185.681,4.563,4.563,0,0,1,.1-.7c.081-.447.206-1.092.376-1.886a35.212,35.212,0,0,1,1.8-6.086,19.5,19.5,0,0,1,1.617-3.107c.588-.9,1.188-1.661,1.556-2.378a2.044,2.044,0,0,0,.218-1.8A5.749,5.749,0,0,1,102.862,294.912Z" transform="translate(-97.383 -294.912)" fill="#fff"/></g></g><g transform="translate(161.397 289.337)"><g transform="translate(0 0)"><path d="M0,0H76.989a8.465,8.465,0,0,1,8.465,8.465V110.1a8.465,8.465,0,0,1-8.465,8.465H0a0,0,0,0,1,0,0V0A0,0,0,0,1,0,0Z" transform="translate(0 38.797) rotate(-27.001)" fill="#455a64"/><g transform="translate(52.186 55.989)"><path d="M197.564,297.336a17.637,17.637,0,0,1-17.682,3.465,19.093,19.093,0,0,1-10.763-9.454c-4.715-9.254-1.307-20.471,7.59-25.008a17.658,17.658,0,0,1,13.933-.9,19.369,19.369,0,0,1,12.084,23.717A17.836,17.836,0,0,1,197.564,297.336ZM173.855,269.86a17.444,17.444,0,0,0-3.576,20.9,17.793,17.793,0,0,0,10.028,8.814,16.331,16.331,0,0,0,21.172-10.787,17.792,17.792,0,0,0-1.238-13.294h0a17.8,17.8,0,0,0-10.028-8.815,16.369,16.369,0,0,0-12.913.826A16.081,16.081,0,0,0,173.855,269.86Z" transform="translate(-166.997 -264.422)" fill="#fff"/><g transform="translate(1.965 9.781)"><g transform="translate(0 0)"><rect width="35.17" height="1.303" transform="translate(0 15.967) rotate(-27.001)" fill="#fff"/></g></g><g transform="translate(9.011 2.443)"><g transform="translate(0 0)"><rect width="1.303" height="36.335" transform="matrix(0.891, -0.454, 0.454, 0.891, 0, 0.591)" fill="#fff"/></g></g><g transform="translate(9.71 1.865)"><path d="M190.984,299.207l-1.227-.437c1.856-5.205,2.611-9.429,2.375-13.291a20.531,20.531,0,0,0-5.919-12.861c-3.31-3.117-8-4.425-12.132-5.581l.35-1.254c4.28,1.2,9.132,2.551,12.676,5.886a21.61,21.61,0,0,1,6.325,13.73C193.756,290.713,192.191,295.825,190.984,299.207Z" transform="translate(-174.082 -265.783)" fill="#fff"/></g><g transform="translate(5.591 2.712)"><path d="M191.421,299.437c-4.355-1.021-8.925-2.409-12.838-5.633a21.611,21.611,0,0,1-7.391-13.188c-.614-4.815,1.324-10.027,2.881-14.215l1.221.454c-1.508,4.054-3.384,9.1-2.81,13.6a20.53,20.53,0,0,0,6.927,12.347c3.706,3.053,8.105,4.386,12.307,5.371Z" transform="translate(-171.076 -266.401)" fill="#fff"/></g><g transform="translate(0.513 2.051)"><path d="M189.332,270.587a38.628,38.628,0,0,1-21.832,9.644l-.129-1.3a37.272,37.272,0,0,0,24.676-13.016l1,.837A37.712,37.712,0,0,1,189.332,270.587Z" transform="translate(-167.371 -265.919)" fill="#fff"/></g><g transform="translate(9.213 21.111)"><path d="M200.282,281.123c-10.626,1.05-19.942,5.49-25.565,12.187l-1-.837c5.836-6.954,15.473-11.563,26.434-12.646Z" transform="translate(-173.719 -279.826)" fill="#fff"/></g></g><g transform="translate(5.901 36.437)"><path d="M186.872,355.441c-.082.042-12.16-23.493-26.973-52.563s-26.758-52.68-26.674-52.722,12.159,23.489,26.977,52.569S186.956,355.4,186.872,355.441Z" transform="translate(-133.225 -250.156)" fill="#263238"/></g><g transform="translate(68.694 100.776)"><path d="M219.887,297.1c.043.084-9.067,4.81-20.345,10.557s-20.458,10.339-20.5,10.256,9.065-4.809,20.347-10.558S219.845,297.019,219.887,297.1Z" transform="translate(-179.042 -297.101)" fill="#fff"/></g><g transform="translate(76.163 107.22)"><path d="M214.8,301.8c.042.084-6.709,3.61-15.077,7.874s-15.192,7.656-15.235,7.572,6.709-3.609,15.08-7.874S214.761,301.722,214.8,301.8Z" transform="translate(-184.492 -301.803)" fill="#fff"/></g><g transform="translate(30.245 26.427)"><g transform="translate(0 19.146)"><path d="M156.577,258.116a2.25,2.25,0,0,1-1.177,3.211l-.876.445.748,1.471-1.421.724-2.864-5.622,2.3-1.17A2.252,2.252,0,0,1,156.577,258.116Zm-1.436.733a.862.862,0,0,0-1.3-.378l-.789.4.839,1.646.789-.4A.86.86,0,0,0,155.141,258.849Z" transform="translate(-150.987 -256.822)" fill="#fff"/></g><g transform="translate(6.587 16.6)"><path d="M159.854,259.314l-2.126,1.083.162,1.294-1.45.739-.647-6.753,1.4-.713,5.09,4.487-1.479.754Zm-1.014-.961-1.562-1.469.27,2.127Z" transform="translate(-155.793 -254.964)" fill="#fff"/></g><g transform="translate(10.997 13.693)"><path d="M160.889,259.7l-.132-1.41A3.3,3.3,0,0,0,162.7,258c.588-.3.724-.6.584-.874-.454-.892-2.981,1.216-4.044-.873-.511-1-.2-2.2,1.3-2.958a3.884,3.884,0,0,1,2.074-.439l.163,1.4a3.069,3.069,0,0,0-1.614.275c-.595.3-.7.639-.552.92.437.859,2.96-1.236,4.017.836.5.98.192,2.189-1.3,2.949A4.1,4.1,0,0,1,160.889,259.7Z" transform="translate(-159.011 -252.843)" fill="#fff"/></g><g transform="translate(15.646 11.324)"><path d="M164.279,257.974l-.13-1.41a3.3,3.3,0,0,0,1.942-.291c.588-.3.724-.6.584-.876-.454-.891-2.979,1.216-4.044-.872-.511-1-.2-2.2,1.3-2.958A3.858,3.858,0,0,1,166,251.13l.163,1.4a3.069,3.069,0,0,0-1.614.275c-.595.3-.7.639-.552.92.437.859,2.96-1.236,4.017.836.5.98.192,2.189-1.3,2.949A4.085,4.085,0,0,1,164.279,257.974Z" transform="translate(-162.403 -251.115)" fill="#fff"/></g><g transform="translate(19.916 8.998)"><path d="M171.109,250.712a2.25,2.25,0,0,1-1.176,3.21l-.877.445.75,1.471-1.423.725-2.864-5.622,2.3-1.172A2.251,2.251,0,0,1,171.109,250.712Zm-1.435.732a.866.866,0,0,0-1.306-.378l-.789.4.839,1.646.789-.4A.861.861,0,0,0,169.674,251.444Z" transform="translate(-165.519 -249.417)" fill="#fff"/></g><g transform="translate(25.983 6.062)"><path d="M170.349,251.979a3.138,3.138,0,1,1,4.281,1.5A3.115,3.115,0,0,1,170.349,251.979Zm4.15-2.115a1.545,1.545,0,1,0-.539,2.3A1.616,1.616,0,0,0,174.5,249.864Z" transform="translate(-169.946 -247.275)" fill="#fff"/></g><g transform="translate(31.29 3.203)"><path d="M178.119,249.72l-.774.395.761,1.494-1.423.725-2.864-5.622,2.3-1.17a2.252,2.252,0,0,1,3.293.942,2.127,2.127,0,0,1-.081,2.276l1.986,1.214-1.523.776Zm-1.45-2.882-.791.4.84,1.646.789-.4a.926.926,0,1,0-.839-1.646Z" transform="translate(-173.818 -245.189)" fill="#fff"/></g><g transform="translate(36.062)"><path d="M179.486,245.62l-1.545.787-.641-1.261,4.5-2.294.641,1.261-1.536.783,2.223,4.361-1.423.725Z" transform="translate(-177.3 -242.852)" fill="#fff"/></g></g><g transform="translate(88.375 57.41)"><g transform="translate(7.563 5.061)"><path d="M203.147,269.152a5.341,5.341,0,0,1-4.168,6.411S198.1,270.38,203.147,269.152Z" transform="translate(-198.92 -269.152)" fill="#fff"/></g><g transform="translate(7.51 12.894)"><path d="M204.237,274.908a4.672,4.672,0,0,1-5.355,4.012S199.719,274.4,204.237,274.908Z" transform="translate(-198.882 -274.868)" fill="#fff"/></g><g transform="translate(5.242 19.323)"><path d="M203.888,280.006a4.984,4.984,0,0,1-6.661,2.566S199.4,278.171,203.888,280.006Z" transform="translate(-197.227 -279.558)" fill="#fff"/></g><g transform="translate(3.038 10.834)"><path d="M195.619,273.364a4.674,4.674,0,0,1,4.734,4.73S195.756,277.907,195.619,273.364Z" transform="translate(-195.619 -273.364)" fill="#fff"/></g><g transform="translate(4.22 15.988)"><path d="M196.946,277.125a3.544,3.544,0,0,1,1.41,4.934A3.7,3.7,0,0,1,196.946,277.125Z" transform="translate(-196.481 -277.125)" fill="#fff"/></g><g transform="translate(5.424 0.8)"><path d="M199.324,266.043a4.233,4.233,0,0,1-1.339,5.911S195.907,268.341,199.324,266.043Z" transform="translate(-197.359 -266.043)" fill="#fff"/></g><path d="M193.4,265.463s3.792-.288,4.3,4.069A4.3,4.3,0,0,1,193.4,265.463Z" transform="translate(-193.402 -265.459)" fill="#fff"/><g transform="translate(0.777 5.917)"><path d="M193.969,270.053a4.9,4.9,0,0,1,6.311,3.053S195.667,274.5,193.969,270.053Z" transform="translate(-193.969 -269.776)" fill="#fff"/></g><g transform="translate(2.9 3.58)"><path d="M195.518,289.411s.014-.015.044-.043l.134-.119c.118-.106.3-.256.508-.469a12.919,12.919,0,0,0,1.636-1.939,14.3,14.3,0,0,0,1.691-3.355,15.9,15.9,0,0,0,.588-2.145l.1-.576.049-.291c.014-.1.022-.2.033-.3l.064-.6.029-.608.014-.306,0-.3c0-.2,0-.4-.008-.6s-.029-.395-.042-.591c-.007-.1-.012-.2-.022-.293l-.036-.288-.074-.569-.1-.554-.051-.273c-.015-.089-.041-.178-.062-.266-.044-.177-.086-.351-.127-.524a15.729,15.729,0,0,0-1.392-3.493,16.255,16.255,0,0,0-1.4-2.12c-.189-.232-.341-.408-.443-.53l-.114-.138c-.026-.031-.038-.049-.038-.049l.042.045.118.136c.1.119.259.293.451.525a15.257,15.257,0,0,1,2.82,5.614c.042.173.085.348.129.525.021.088.047.177.063.267l.052.273q.051.275.1.555l.074.57.037.291c.01.1.015.195.022.293.015.2.029.393.042.593s.007.4.01.6l0,.3-.014.307-.03.611-.064.6c-.011.1-.019.2-.033.3l-.049.292-.1.578a15.964,15.964,0,0,1-.592,2.15,14.145,14.145,0,0,1-1.708,3.359,12.464,12.464,0,0,1-1.653,1.932c-.214.211-.395.36-.515.463l-.137.115Z" transform="translate(-195.518 -268.071)" fill="#fff"/></g></g><g transform="translate(42.353 78.981)"><g transform="translate(0.861 11.111)"><path d="M160.45,290.7a5.341,5.341,0,0,0,7.636.395S164.409,287.341,160.45,290.7Z" transform="translate(-160.45 -289.305)" fill="#fff"/></g><g transform="translate(6.598 15.538)"><path d="M164.636,295a4.672,4.672,0,0,0,6.393-1.974S166.878,291.051,164.636,295Z" transform="translate(-164.636 -292.535)" fill="#fff"/></g><g transform="translate(12.695 17.311)"><path d="M169.085,297.765a4.985,4.985,0,0,0,5.99-3.88S170.239,293.055,169.085,297.765Z" transform="translate(-169.085 -293.829)" fill="#fff"/></g><g transform="translate(9.729 8.822)"><path d="M167.865,287.635a4.674,4.674,0,0,0,1.044,6.61S171.462,290.417,167.865,287.635Z" transform="translate(-166.921 -287.635)" fill="#fff"/></g><g transform="translate(13.847 13.184)"><path d="M169.955,290.818a3.544,3.544,0,0,0,3.163,4.04A3.7,3.7,0,0,0,169.955,290.818Z" transform="translate(-169.925 -290.818)" fill="#fff"/></g><g transform="translate(0 6.13)"><path d="M159.822,285.985a4.233,4.233,0,0,0,5.57,2.392S163.69,284.573,159.822,285.985Z" transform="translate(-159.822 -285.671)" fill="#fff"/></g><g transform="translate(2.8)"><path d="M162.763,281.2s-2.46,2.9.765,5.87A4.3,4.3,0,0,0,162.763,281.2Z" transform="translate(-161.865 -281.198)" fill="#fff"/></g><g transform="translate(6.081 4.266)"><path d="M166.427,284.311a4.9,4.9,0,0,0-1.239,6.9S169.03,288.3,166.427,284.311Z" transform="translate(-164.259 -284.311)" fill="#fff"/></g><g transform="translate(4.314 5.235)"><path d="M180.809,296.773s-.022,0-.062.011l-.175.038c-.155.033-.381.088-.678.134a12.768,12.768,0,0,1-2.53.185,14.2,14.2,0,0,1-3.709-.6,16.093,16.093,0,0,1-2.08-.785c-.173-.086-.347-.173-.524-.259l-.264-.132c-.086-.047-.171-.1-.258-.147l-.522-.3-.51-.333-.256-.17-.243-.181c-.162-.122-.325-.24-.482-.362l-.455-.381c-.074-.063-.151-.125-.223-.189l-.211-.2c-.141-.132-.28-.263-.418-.393l-.386-.408-.191-.2c-.064-.067-.119-.14-.18-.207-.118-.14-.233-.277-.348-.411a15.726,15.726,0,0,1-2.008-3.18,16.133,16.133,0,0,1-.894-2.376c-.077-.291-.13-.518-.17-.67l-.045-.175c-.01-.038-.016-.059-.016-.059s0,.021.012.06l.038.175c.037.154.086.382.16.674a15.761,15.761,0,0,0,.881,2.386,15.52,15.52,0,0,0,2,3.195c.114.136.23.274.348.413.059.069.115.141.18.208l.191.2.388.411.418.395.212.2c.073.064.149.126.225.19.151.126.3.255.455.382s.321.241.484.363l.244.182.256.17.513.334.524.3c.086.049.171.1.259.148l.266.132.525.259a15.791,15.791,0,0,0,2.089.785,14.142,14.142,0,0,0,3.721.593,12.491,12.491,0,0,0,2.535-.2c.3-.049.524-.108.677-.145l.174-.042Z" transform="translate(-162.97 -285.018)" fill="#fff"/></g></g></g></g><g transform="translate(358.567 283.666)"><g transform="translate(3.639 41.173)"><path d="M459.032,392.047l-3.115,7.812S410.569,365.26,375.6,368.2h0a7.189,7.189,0,0,1-6.174,1.131L356.4,366.1a7.316,7.316,0,0,1-5.442-5.316h0s-26.4-21.814-62.185-18.424l-13.331.561,56.414-93.452L485.82,274.292Z" transform="translate(-275.44 -249.473)" fill="#455a64"/></g><g transform="translate(92.167 92.284)"><path d="M446.989,369.727l-5.185,14.2s-42.476-41.7-101.77-32.514l35.536-64.65S447.917,353.875,446.989,369.727Z" transform="translate(-340.035 -286.767)" fill="#ebebeb"/></g><g transform="translate(91.551 41.311)"><g transform="translate(0.615 0.227)"><path d="M490.635,282.8S442.508,224.154,378.8,263.081L340.035,365.136s70.926-28.456,111.6,23.26Z" transform="translate(-340.035 -249.74)" fill="#fff"/></g><path d="M490.8,282.861s-.212.652-.667,1.926c-.467,1.294-1.148,3.178-2.037,5.634-1.812,4.96-4.458,12.2-7.827,21.427l-28.184,76.716-.188.51-.337-.428a78.6,78.6,0,0,0-47.536-28.99,108.214,108.214,0,0,0-31.191-1.377,132.177,132.177,0,0,0-16.034,2.5,121.721,121.721,0,0,0-15.9,4.531c-.189.073-.378.145-.565.215l-.748.286.282-.744,38.8-102.04.038-.1.092-.056a92.783,92.783,0,0,1,24.416-10.646,76.106,76.106,0,0,1,44.729,1.5,92.332,92.332,0,0,1,16.426,7.46,107.826,107.826,0,0,1,20.267,15.141c2.127,2.015,3.666,3.655,4.68,4.78.507.562.881,1,1.127,1.3s.358.458.358.458-.137-.137-.4-.425-.659-.714-1.162-1.261c-1.036-1.1-2.6-2.716-4.741-4.7a110.068,110.068,0,0,0-20.316-14.962,92.644,92.644,0,0,0-16.384-7.356,75.75,75.75,0,0,0-44.436-1.366,92.368,92.368,0,0,0-24.237,10.624l.13-.158-38.722,102.07-.466-.458.578-.222a122.475,122.475,0,0,1,16-4.558,132.72,132.72,0,0,1,16.12-2.511,108.737,108.737,0,0,1,31.391,1.407,79.148,79.148,0,0,1,47.88,29.286l-.525.084,28.4-76.495c3.441-9.217,6.145-16.456,8-21.411.928-2.46,1.639-4.349,2.127-5.644C490.525,283.524,490.8,282.861,490.8,282.861Z" transform="translate(-339.586 -249.574)" fill="#263238"/></g><g transform="translate(0 37.119)"><path d="M364,365.93s-42.768-44.683-90.264-27.812L315.73,247.1l86.3,20.481Z" transform="translate(-272.433 -246.3)" fill="#f5f5f5"/><path d="M364.6,367.4l-.746-.778c-.426-.444-43.009-44.166-89.541-27.64l-1.532.544,42.909-93.008.545.129,87.06,20.663-.282.733Zm-68.583-33.518c34.611,0,63.126,26.221,68.072,31.039l37.363-96.64-84.987-20.171-41.088,89.06A65.859,65.859,0,0,1,296.021,333.879Z" transform="translate(-272.785 -246.515)" fill="#263238"/></g><g transform="translate(12.395)"><g transform="translate(0.518 0.345)"><path d="M400.223,274.217S391.561,234.36,352.081,225l-25.505-5.312-44.369,90.76s63.746,13.834,79.333,65.206Z" transform="translate(-282.207 -219.683)" fill="#fff"/></g><path d="M400.363,274.31s-.044.16-.155.474l-.51,1.4-2.031,5.456-7.791,20.674-27.9,73.539-.323.855-.269-.876a77.413,77.413,0,0,0-9.7-20.279c-1.043-1.649-2.286-3.178-3.445-4.783-1.283-1.51-2.476-3.118-3.872-4.571a93.421,93.421,0,0,0-8.77-8.544c-12.611-10.771-28.368-19.053-45.475-24.576-2.613-.828-5.249-1.59-7.847-2.194l-.443-.1.2-.4c16.326-33.351,31.527-64.407,44.417-90.737l.1-.212.23.049q10.871,2.276,20.785,4.354a68.269,68.269,0,0,1,18.213,5.858,63.342,63.342,0,0,1,23.293,20.222,75.482,75.482,0,0,1,9.277,17.64c.794,2.161,1.3,3.854,1.61,5s.407,1.756.407,1.756-.049-.144-.129-.437l-.369-1.292c-.34-1.136-.873-2.816-1.693-4.963a77.02,77.02,0,0,0-9.391-17.5,63.22,63.22,0,0,0-23.226-19.985,67.931,67.931,0,0,0-18.111-5.759l-20.791-4.3.333-.164c-12.861,26.345-28.03,57.416-44.321,90.785l-.244-.506c2.646.617,5.281,1.377,7.913,2.212a146.07,146.07,0,0,1,24.536,10.382,118.649,118.649,0,0,1,21.172,14.349,93.9,93.9,0,0,1,8.825,8.615c1.4,1.465,2.607,3.086,3.9,4.61,1.166,1.62,2.418,3.164,3.467,4.827a77.87,77.87,0,0,1,9.747,20.469l-.592-.021c11.6-30.272,21.31-55.6,28.124-73.373,3.421-8.867,6.115-15.849,7.963-20.637l2.126-5.445.558-1.4C400.285,274.468,400.363,274.31,400.363,274.31Z" transform="translate(-281.829 -219.431)" fill="#263238"/></g><g transform="translate(66.794 20.793)"><path d="M321.522,234.661c-.034.322,4.02,1,10.227,3.129a80.684,80.684,0,0,1,22.241,11.91,70.413,70.413,0,0,1,16.416,17.691c3.225,5.091,4.513,8.507,4.875,8.435.138-.025-.079-.892-.6-2.456a36.486,36.486,0,0,0-2.96-6.462A62.416,62.416,0,0,0,355.3,248.4a72.746,72.746,0,0,0-23.167-11.814,50.78,50.78,0,0,0-7.734-1.727C322.549,234.614,321.533,234.537,321.522,234.661Z" transform="translate(-321.522 -234.603)" fill="#e0e0e0"/></g><g transform="translate(60.051 30.514)"><path d="M316.6,241.754c-.034.322,4.02,1,10.227,3.129a80.7,80.7,0,0,1,22.239,11.91,70.363,70.363,0,0,1,16.416,17.692c3.226,5.09,4.513,8.505,4.875,8.434.14-.025-.078-.892-.6-2.456A36.491,36.491,0,0,0,366.8,274a62.425,62.425,0,0,0-16.426-18.5,72.7,72.7,0,0,0-23.166-11.812,50.833,50.833,0,0,0-7.735-1.728C317.629,241.707,316.613,241.63,316.6,241.754Z" transform="translate(-316.602 -241.696)" fill="#e0e0e0"/></g><g transform="translate(55.416 42.022)"><path d="M313.22,250.151c-.034.322,4.018,1,10.227,3.129a80.661,80.661,0,0,1,22.239,11.91A70.365,70.365,0,0,1,362.1,282.88c3.225,5.09,4.513,8.507,4.875,8.435.138-.025-.079-.893-.6-2.457a36.643,36.643,0,0,0-2.959-6.462,62.442,62.442,0,0,0-16.425-18.5,72.75,72.75,0,0,0-23.166-11.812,50.666,50.666,0,0,0-7.735-1.727C314.247,250.1,313.23,250.027,313.22,250.151Z" transform="translate(-313.22 -250.093)" fill="#e0e0e0"/></g><g transform="translate(49.126 52.053)"><path d="M308.63,257.47c-.034.322,4.018,1,10.227,3.129a80.694,80.694,0,0,1,22.239,11.91,70.388,70.388,0,0,1,16.416,17.69c3.226,5.09,4.513,8.507,4.875,8.435.14-.026-.078-.894-.6-2.456a36.608,36.608,0,0,0-2.959-6.463,62.425,62.425,0,0,0-16.426-18.5A72.735,72.735,0,0,0,319.238,259.4a50.789,50.789,0,0,0-7.735-1.727C309.657,257.423,308.641,257.346,308.63,257.47Z" transform="translate(-308.63 -257.412)" fill="#e0e0e0"/></g><g transform="translate(42.246 62.543)"><path d="M303.61,265.124c-.034.322,4.018,1,10.227,3.129a80.7,80.7,0,0,1,22.239,11.91,70.385,70.385,0,0,1,16.416,17.691c3.225,5.09,4.513,8.507,4.875,8.435.14-.025-.078-.892-.6-2.456a36.642,36.642,0,0,0-2.96-6.463,62.442,62.442,0,0,0-16.426-18.5,72.756,72.756,0,0,0-23.166-11.814,50.793,50.793,0,0,0-7.735-1.727C304.637,265.077,303.621,265,303.61,265.124Z" transform="translate(-303.61 -265.066)" fill="#e0e0e0"/></g><g transform="translate(33.971 74.105)"><path d="M297.572,273.554c-.036.325,4.371,1.044,11.094,3.467a98.222,98.222,0,0,1,11.452,4.994,115.448,115.448,0,0,1,12.9,7.92,103.267,103.267,0,0,1,11.335,9.578,71.656,71.656,0,0,1,7.609,8.984c3.822,5.4,5.172,9.133,5.551,9.056.14-.026-.121-.965-.721-2.663a18.169,18.169,0,0,0-1.339-3.036,29.585,29.585,0,0,0-2.213-3.9,61.548,61.548,0,0,0-7.452-9.43,92.6,92.6,0,0,0-11.519-9.927,103.36,103.36,0,0,0-13.308-8,83.941,83.941,0,0,0-11.889-4.764,45.534,45.534,0,0,0-4.749-1.3,28.833,28.833,0,0,0-3.63-.717C298.685,273.529,297.582,273.431,297.572,273.554Z" transform="translate(-297.572 -273.502)" fill="#e0e0e0"/></g><g transform="translate(29.98 84.228)"><path d="M294.66,280.94c-.038.332,4.4,1.038,11.1,3.574a92.183,92.183,0,0,1,11.374,5.244,114.351,114.351,0,0,1,12.687,8.286,107.411,107.411,0,0,1,11.065,9.9,76.893,76.893,0,0,1,7.43,9.155c3.75,5.47,5.122,9.21,5.494,9.134.138-.025-.121-.968-.717-2.674a19.531,19.531,0,0,0-1.321-3.052,31.48,31.48,0,0,0-2.167-3.935,65.153,65.153,0,0,0-7.249-9.584,95.736,95.736,0,0,0-11.227-10.243,102.659,102.659,0,0,0-13.1-8.385,80.092,80.092,0,0,0-11.837-5.031,42.3,42.3,0,0,0-4.756-1.366,27.315,27.315,0,0,0-3.644-.75C295.777,280.919,294.67,280.816,294.66,280.94Z" transform="translate(-294.66 -280.889)" fill="#e0e0e0"/></g><g transform="translate(118.587 127.904)"><path d="M359.319,320.943c.221.28,3.813-1.812,10.421-3.768a67.468,67.468,0,0,1,27.447-2.079,74.579,74.579,0,0,1,26.937,9.137c6.352,3.637,9.709,6.632,9.953,6.411.09-.074-.647-.9-2.165-2.252a54.412,54.412,0,0,0-7.028-5.189,69.549,69.549,0,0,0-27.614-9.907,62.431,62.431,0,0,0-28.187,2.666,43.738,43.738,0,0,0-7.417,3.314C360.039,320.221,359.236,320.846,359.319,320.943Z" transform="translate(-359.313 -312.757)" fill="#e0e0e0"/></g><g transform="translate(123.944 114.922)"><path d="M363.228,311.471c.219.28,3.811-1.812,10.42-3.767a67.442,67.442,0,0,1,27.447-2.079,74.518,74.518,0,0,1,26.937,9.137c6.352,3.637,9.71,6.631,9.954,6.411.089-.074-.647-.9-2.167-2.252a54.34,54.34,0,0,0-7.027-5.189,69.555,69.555,0,0,0-27.616-9.907,62.405,62.405,0,0,0-28.186,2.666,43.765,43.765,0,0,0-7.419,3.314C363.949,310.749,363.144,311.374,363.228,311.471Z" transform="translate(-363.222 -303.285)" fill="#e0e0e0"/></g><g transform="translate(129.3 101.94)"><path d="M367.136,302c.221.28,3.811-1.813,10.42-3.768A67.421,67.421,0,0,1,405,296.153a74.518,74.518,0,0,1,26.937,9.137c6.354,3.637,9.71,6.63,9.954,6.411.09-.075-.647-.9-2.167-2.253a54.489,54.489,0,0,0-7.027-5.187,69.556,69.556,0,0,0-27.616-9.907,62.388,62.388,0,0,0-28.186,2.666,43.7,43.7,0,0,0-7.417,3.313C367.856,301.277,367.053,301.9,367.136,302Z" transform="translate(-367.13 -293.812)" fill="#e0e0e0"/></g><g transform="translate(134.656 88.958)"><path d="M371.044,292.528c.221.278,3.811-1.813,10.42-3.768a67.42,67.42,0,0,1,27.447-2.079,74.525,74.525,0,0,1,26.939,9.137c6.352,3.637,9.709,6.631,9.953,6.411.09-.075-.647-.9-2.167-2.253a54.351,54.351,0,0,0-7.027-5.187,69.525,69.525,0,0,0-27.614-9.909,62.433,62.433,0,0,0-28.187,2.666,43.692,43.692,0,0,0-7.417,3.314C371.764,291.805,370.961,292.43,371.044,292.528Z" transform="translate(-371.038 -284.34)" fill="#e0e0e0"/></g><g transform="translate(140.012 75.976)"><path d="M374.952,283.054c.221.28,3.811-1.812,10.421-3.768a67.462,67.462,0,0,1,27.447-2.079,74.529,74.529,0,0,1,26.937,9.137c6.352,3.637,9.709,6.631,9.953,6.411.09-.074-.647-.9-2.165-2.252a54.154,54.154,0,0,0-7.028-5.187,69.526,69.526,0,0,0-27.614-9.909,62.431,62.431,0,0,0-28.187,2.666,43.738,43.738,0,0,0-7.417,3.314C375.672,282.332,374.869,282.957,374.952,283.054Z" transform="translate(-374.946 -274.868)" fill="#e0e0e0"/></g><g transform="translate(145.368 62.995)"><path d="M378.86,273.582c.222.28,3.813-1.812,10.421-3.767a67.466,67.466,0,0,1,27.447-2.079,74.529,74.529,0,0,1,26.937,9.137c6.352,3.637,9.71,6.631,9.953,6.411.09-.074-.646-.9-2.165-2.253a54.486,54.486,0,0,0-7.027-5.187,69.554,69.554,0,0,0-27.616-9.907,62.425,62.425,0,0,0-28.186,2.666,43.653,43.653,0,0,0-7.419,3.314C379.582,272.86,378.777,273.485,378.86,273.582Z" transform="translate(-378.854 -265.396)" fill="#e0e0e0"/></g></g><g transform="translate(145.898 191.267)"><g transform="translate(0 0)"><g transform="translate(12.392 287.744)"><g transform="translate(0 76.802)"><rect width="20.896" height="75.024" rx="7.197" fill="#263238"/></g><g transform="translate(11.064 0)"><path d="M207.472,529.373s-27.244-.03-39.261,0-24.947,1.369-30.169-5.72c-4.087-5.545-3.378-12.869-3.064-19.508q1.322-28,2.646-56c.238-5.059.5-10.224,2.619-14.945s11.636-70.147,17.364-71.233h48.546Z" transform="translate(-134.724 -361.966)" fill="#263238"/></g><g transform="translate(15.492 137.132)"><path d="M196.073,462.381c0,.2-13.012.358-29.057.358s-29.06-.16-29.06-.358,13.009-.356,29.06-.356S196.073,462.184,196.073,462.381Z" transform="translate(-137.955 -462.025)" fill="#455a64"/></g><g transform="translate(50.107 61.662)"><path d="M163.57,406.958c.2,0,.356,16.948.356,37.847s-.159,37.851-.356,37.851-.358-16.944-.358-37.851S163.372,406.958,163.57,406.958Z" transform="translate(-163.212 -406.958)" fill="#455a64"/></g><g transform="translate(13.564 78.901)"><path d="M137.114,488.04a2.614,2.614,0,0,1-.084-.695c-.027-.537-.06-1.2-.1-1.994-.074-1.734-.148-4.242-.214-7.34-.134-6.2-.214-14.767-.136-24.228s.3-18.029.541-24.225c.119-3.1.236-5.605.339-7.336l.134-1.993a2.546,2.546,0,0,1,.1-.692,2.618,2.618,0,0,1,.048.7c0,.539,0,1.2,0,2-.027,1.842-.064,4.323-.111,7.34-.086,6.3-.2,14.808-.333,24.217-.027,9.407-.053,17.919-.073,24.217-.005,3.018-.01,5.5-.012,7.34-.014.8-.023,1.46-.033,2A2.552,2.552,0,0,1,137.114,488.04Z" transform="translate(-136.549 -419.537)" fill="#455a64"/></g></g><g transform="translate(19.766 169.007)"><g transform="translate(264.866 24.054)"><path d="M335.712,292.88s21.31,4.061,32.156,38.471c12.4,39.34,33.328,120.011,33.169,129.327s-23.895,24.217-23.895,24.217l-34.006-11.335-17.843-67.121Z" transform="translate(-325.293 -292.88)" fill="#f40076"/></g><path d="M407.316,299.383l-52.445-19.45-3.588-4.6-67.624,2.093-5.1,3.236s-50.823,11.153-56.091,11.829c-12.324,1.583-25.261,18.542-25.261,18.542-1.3,1.583-65.176,94.476-65.176,94.476l14.937,58.449s7.029,2.487,27.237-10.778c16.012-10.51,28.461-27.148,32.944-33.609l-.079,141.906H405.159l-10.79-90Z" transform="translate(-132.032 -275.329)" fill="#f40076"/><g transform="translate(265.209 48.989)"><path d="M325.552,379.635a2.605,2.605,0,0,1,.085-.7c.1-.534.229-1.191.381-1.986.367-1.827.861-4.291,1.462-7.29,1.218-6.156,2.792-14.684,4.22-24.15s2.429-18.084,3.075-24.327l.75-7.4c.088-.806.16-1.469.219-2.011a2.667,2.667,0,0,1,.126-.7,2.644,2.644,0,0,1,.018.709c-.023.544-.052,1.212-.086,2.022-.086,1.754-.263,4.291-.523,7.421-.519,6.262-1.449,14.9-2.873,24.385s-3.085,18.01-4.432,24.147c-.672,3.069-1.25,5.545-1.684,7.247-.2.785-.374,1.431-.511,1.958A2.69,2.69,0,0,1,325.552,379.635Z" transform="translate(-325.544 -311.074)" fill="#263238"/></g><g transform="translate(68.809 79.565)"><path d="M182.251,333.384a4.159,4.159,0,0,1,.181.852l.381,2.466c.319,2.142.733,5.249,1.2,9.093.946,7.686,2.057,18.332,2.921,30.12s1.3,22.487,1.48,30.231c.09,3.872.132,7,.126,9.17-.008,1.022-.015,1.849-.019,2.494a3.952,3.952,0,0,1-.056.87,4.068,4.068,0,0,1-.088-.867c-.03-.646-.069-1.471-.115-2.492-.086-2.253-.206-5.36-.352-9.159-.308-7.734-.832-18.414-1.688-30.2s-1.893-22.419-2.709-30.116c-.406-3.781-.739-6.873-.979-9.115-.1-1.016-.185-1.839-.248-2.481A3.954,3.954,0,0,1,182.251,333.384Z" transform="translate(-182.239 -333.384)" fill="#263238"/></g><g transform="translate(144.246 8.88)"><path d="M315.856,284.567a4.935,4.935,0,0,1-.7.691c-.473.432-1.181,1.059-2.108,1.849-1.856,1.577-4.572,3.825-8.059,6.439a82.378,82.378,0,0,1-12.936,8.209,50.6,50.6,0,0,1-18.233,4.306,45.085,45.085,0,0,1-18.554-2.544,31.108,31.108,0,0,1-12.406-8.908,25.24,25.24,0,0,1-4.9-9.073,19.145,19.145,0,0,1-.576-2.753,4.982,4.982,0,0,1-.1-.974,5.115,5.115,0,0,1,.238.95,24.733,24.733,0,0,0,.7,2.7,26,26,0,0,0,5.022,8.829,31.047,31.047,0,0,0,12.258,8.62,45.082,45.082,0,0,0,18.276,2.444,50.723,50.723,0,0,0,18-4.191,85.629,85.629,0,0,0,12.913-8.018c3.515-2.555,6.276-4.738,8.182-6.247l2.191-1.745A5.308,5.308,0,0,1,315.856,284.567Z" transform="translate(-237.282 -281.808)" fill="#263238"/></g></g><g transform="translate(85.485 178.268)"><g transform="translate(9.321 68.066)" opacity="0.3"><path d="M233.4,331.751c-7.9,5.461-8.851,16.538-9.3,26.131-1.843,39.386-26.978,114.588-37.319,152.637C219.33,460.246,239.285,391.35,233.4,331.751Z" transform="translate(-186.785 -331.751)"/></g><path d="M238.069,283.095s-2.63,84.758-9.9,135.624-42.512,118.558-42.512,118.558l-5.677-11.091s19.485-56.5,28.3-103.834c6.234-33.462,0-134.282,0-134.282A40,40,0,0,1,238.069,283.095Z" transform="translate(-179.984 -282.086)" fill="#263238"/><g transform="translate(39.338 6.128)"><path d="M208.732,365.37c-.2-.007.263-17.658,1.028-39.417s1.545-39.4,1.742-39.4-.263,17.652-1.028,39.42S208.93,365.377,208.732,365.37Z" transform="translate(-208.687 -286.558)" fill="#455a64"/></g></g><g transform="translate(0 193.87)"><g transform="translate(0 69.633)"><path d="M132.679,348.85l-6.759,17.459s-8.962,18.269-8.272,30.677,16.341,57.785,47.957,43.074,15.838-38.593,15.838-38.593l-14.849-40.673-23.315-15.336A7.151,7.151,0,0,0,132.679,348.85Z" transform="translate(-117.609 -344.279)" fill="#f40076"/></g><g transform="translate(18.267)"><path d="M165.062,319.152c2.068,2.757,14.013-.411,16.726,5.171a10.33,10.33,0,0,1,0,9.784,11.428,11.428,0,0,1,1.206,12.276,15.926,15.926,0,0,1,1.275,8.272,12.215,12.215,0,0,1-4.011,7.238,7.624,7.624,0,0,1-3.132,7.583c-4.136,2.757-14.987,4.852-14.987,4.852l-4.477,8.246s-6.184,6.894-13.868,3.792-12.855-18.378-12.855-18.378c.345-1.958,8.962-16.225,8.962-16.225s1.724-21.235,5.515-26.406,5.515-6.2,5.515-6.2,3.3-7.084,3.3-10.128-2.823-12.768-1.132-14.745,8.647-.6,11.689,7.446S165.062,319.152,165.062,319.152Z" transform="translate(-130.938 -293.47)" fill="#ffbf9d"/></g><g transform="translate(50.383 38.76)"><path d="M172.712,322.987c-.038.214-4.1-.5-9.166-.521-5.063-.045-9.139.622-9.174.407a8.763,8.763,0,0,1,2.641-.641,41.294,41.294,0,0,1,13.066.081A8.837,8.837,0,0,1,172.712,322.987Z" transform="translate(-154.372 -321.752)" fill="#ff9a6c"/></g><g transform="translate(52.378 52.732)"><path d="M173.12,333.229c-.044.214-3.869-.566-8.644-.569-4.776-.033-8.605.718-8.648.5-.052-.169,3.78-1.249,8.651-1.216C169.35,331.951,173.172,333.06,173.12,333.229Z" transform="translate(-155.828 -331.947)" fill="#ff9a6c"/></g><g transform="translate(53.546 68.139)"><path d="M171.842,343.222c.058.171-3.241,1.3-7.5,1.606-4.261.326-7.691-.3-7.658-.481.023-.214,3.428.092,7.606-.23C168.464,343.82,171.789,343.015,171.842,343.222Z" transform="translate(-156.68 -343.189)" fill="#ff9a6c"/></g><g transform="translate(35.53 77.482)"><path d="M166.239,350.87a10.523,10.523,0,0,1-3.166,1.4,24.718,24.718,0,0,1-16.484-.617,10.622,10.622,0,0,1-3.053-1.636c.077-.236,4.791,2.452,11.27,2.646C161.278,352.956,166.18,350.63,166.239,350.87Z" transform="translate(-143.534 -350.005)" fill="#ff9a6c"/></g><g transform="translate(38.605 26.193)"><path d="M165.526,313.832c-.041.222-4.428-.714-9.9-.519-5.474.154-9.792,1.368-9.847,1.148a9.625,9.625,0,0,1,2.789-.929,35.59,35.59,0,0,1,14.115-.449A9.621,9.621,0,0,1,165.526,313.832Z" transform="translate(-145.778 -312.582)" fill="#ff9a6c"/></g><g transform="translate(47.978 84.776)"><path d="M165.379,417.753c-.062-.03.358-.863.959-2.426a31.24,31.24,0,0,0,1.813-6.825,32.717,32.717,0,0,0-.126-10.42,30.911,30.911,0,0,0-4.679-11.808c-2.492-3.8-5.267-7.3-6.8-11.042a44.254,44.254,0,0,1-2.875-10.212c-.5-2.977-.732-5.4-.884-7.08-.059-.77-.108-1.407-.148-1.932a2.449,2.449,0,0,1,0-.68,2.455,2.455,0,0,1,.145.665c.075.519.169,1.151.28,1.916.237,1.664.548,4.077,1.1,7.022a46.09,46.09,0,0,0,2.982,10.036c1.529,3.646,4.268,7.061,6.8,10.919a30.973,30.973,0,0,1,4.727,12.086,32.106,32.106,0,0,1-.025,10.61,28.264,28.264,0,0,1-2.054,6.85,17.247,17.247,0,0,1-.859,1.743A2.365,2.365,0,0,1,165.379,417.753Z" transform="translate(-152.617 -355.328)" fill="#263238"/></g><g transform="translate(48.421 84.305)"><g opacity="0.3"><path d="M152.94,355.059c.184.736.4,1.457.635,2.174,0-.751,0-1.5,0-2.249Z" transform="translate(-152.94 -354.984)"/></g><g transform="translate(0.635 2.249)" opacity="0.3"><path d="M166.358,378.912c-4.69-7.233-10.308-14.152-12.955-22.287.019,6.918.332,13.964,3.221,20.207,1.9,4.1,4.812,7.628,7.235,11.441s4.416,8.164,4.106,12.672c-.11,1.6-.507,3.229-.115,4.786s1.99,2.982,3.5,2.444c1.139-.407,1.68-1.687,1.984-2.857C175.694,396.24,171.462,386.78,166.358,378.912Z" transform="translate(-153.403 -356.625)"/></g></g></g><g transform="translate(122.333)"><path d="M360.316,251.967c-3.137,1.756-7.345-.517-8.769-3.818s-.765-7.118.319-10.546,2.585-6.791,2.8-10.379A15.3,15.3,0,0,0,344.4,212.186c6.1-4.839,6.6-15.21,1-20.617-2.62-2.526-6.114-3.9-9.165-5.886a31.763,31.763,0,0,1-4.83-3.94,19.606,19.606,0,0,0,8.316.26,13.457,13.457,0,0,0,9.765-8.552,12.208,12.208,0,0,0-2.949-12.51,11.185,11.185,0,0,0-12.572-1.862c-3.943,2.079-6.106,6.369-8.022,10.393q-.89,1.873-1.782,3.742c-5.551-7.353-10.769-14.948-19.33-17.533-7.758-2.344-16.109.271-24.192-.317-5.892-.426-11.544-2.552-17.416-3.195s-12.551.61-16.018,5.393c-2.035,2.805-2.677,6.44-4.736,9.229-4.253,5.76-13.416,6.543-16.911,12.791-2.841,5.078-.655,11.49-1.875,17.179-1.327,6.188-6.424,10.709-10.6,15.461s-7.808,11.282-5.466,17.163c2.059,5.171,8.093,7.954,10.06,13.162,1.434,3.8.389,8.019.315,12.078s1.556,8.875,5.509,9.8l45.022,11.892c15.506,6.307,31.5,12.714,48.242,12.69s34.607-8.059,41.215-23.438a9.631,9.631,0,0,1-6.466-2.9A16.1,16.1,0,0,0,360.316,251.967Z" transform="translate(-206.87 -152.012)" fill="#263238"/><g transform="translate(17.034 4.96)"><g transform="translate(0 3.875)"><g transform="translate(92.042 21.916)"><path d="M293.928,257.78c3.713-11.42,7.379-22.927,9.07-34.815s1.331-24.283-2.853-35.539c-.635-1.706-6.041-13.153-7.853-12.975-1.3.127,2.037,10.806,1.381,11.932-6.248,10.73-7.948,23.636-6.948,36.011s3.573,23.511,7.2,35.385" transform="translate(-286.458 -174.45)" fill="#263238"/></g><g transform="translate(0 3.528)"><path d="M274.152,161.032l-2.783.149a53.84,53.84,0,0,0-50.947,52.305c-.7,26.094-1.664,51.14-.744,65.07,1.9,28.837,31.527,31.842,31.527,31.842v14.885c1.27,15.189,20.941,17.906,28.4,17.255,25.756,0,39.181-21.072,39.181-21.072l1.21-104.533C320.971,186.835,304.269,161.176,274.152,161.032Z" transform="translate(-219.3 -161.032)" fill="#ffbf9d"/></g><g transform="translate(31.905 139.711)"><path d="M242.579,273.522s18.246.092,36.976-13.123c0,0-8.035,21.479-36.968,20.423Z" transform="translate(-242.579 -260.399)" fill="#ff9a6c"/></g><g transform="translate(14.404 75.7)"><path d="M229.81,217.639a4.128,4.128,0,0,0,4.2,3.946,3.948,3.948,0,0,0,4.048-3.944,4.127,4.127,0,0,0-4.191-3.947A3.952,3.952,0,0,0,229.81,217.639Z" transform="translate(-229.81 -213.693)" fill="#263238"/></g><g transform="translate(7.856 62.848)"><path d="M225.108,209.1c.54.51,3.537-1.968,7.974-2.193,4.427-.291,7.8,1.817,8.255,1.247.223-.252-.348-1.2-1.82-2.15a11.336,11.336,0,0,0-6.646-1.665,10.879,10.879,0,0,0-6.31,2.418C225.253,207.871,224.843,208.868,225.108,209.1Z" transform="translate(-225.031 -204.315)" fill="#263238"/></g><g transform="translate(54.53 75.792)"><path d="M259.088,217.707a4.127,4.127,0,0,0,4.2,3.944,3.947,3.947,0,0,0,4.048-3.944,4.129,4.129,0,0,0-4.192-3.947A3.951,3.951,0,0,0,259.088,217.707Z" transform="translate(-259.088 -213.76)" fill="#263238"/></g><g transform="translate(51.389 62.313)"><path d="M256.871,208.705c.541.51,3.543-1.967,7.975-2.193,4.427-.289,7.8,1.817,8.256,1.249.222-.254-.344-1.2-1.823-2.15a11.328,11.328,0,0,0-6.644-1.667,10.892,10.892,0,0,0-6.31,2.418C257.021,207.481,256.608,208.479,256.871,208.705Z" transform="translate(-256.796 -203.925)" fill="#263238"/></g><g transform="translate(25.908 64.963)"><path d="M249.681,242.916c.007-.252-2.775-.581-7.273-.913-1.138-.056-2.222-.223-2.455-.987-.31-.8.1-2.049.577-3.4q1.375-4.194,2.886-8.8c3.992-12.526,6.817-22.8,6.311-22.957s-4.153,9.869-8.145,22.4q-1.435,4.632-2.742,8.847c-.359,1.309-1.018,2.808-.35,4.475a2.846,2.846,0,0,0,1.952,1.557,7.734,7.734,0,0,0,1.937.164C246.888,243.3,249.677,243.17,249.681,242.916Z" transform="translate(-238.203 -205.859)" fill="#263238"/></g><g transform="translate(37.096 104.387)"><path d="M259.871,234.626c-.724,0-.474,4.81-4.412,8.448s-9.088,3.382-9.091,4.058c-.051.3,1.194.873,3.362.815a12.008,12.008,0,0,0,7.6-3.114,10.459,10.459,0,0,0,3.391-7.068C260.8,235.743,260.2,234.58,259.871,234.626Z" transform="translate(-246.367 -234.625)" fill="#263238"/></g><g transform="translate(50.713 45.276)"><path d="M256.335,195.3c.5,1.183,4.9.374,10.135.722,5.244.243,9.521,1.54,10.153.423.28-.535-.513-1.63-2.271-2.705a17.662,17.662,0,0,0-15.457-.873C257.027,193.742,256.115,194.741,256.335,195.3Z" transform="translate(-256.303 -191.494)" fill="#263238"/></g><g transform="translate(8.837 47.766)"><path d="M225.884,198.334c.835.965,3.833-.244,7.5-.491,3.662-.374,6.821.314,7.48-.778.286-.528-.258-1.51-1.668-2.392a10.888,10.888,0,0,0-12.073,1.024C225.884,196.8,225.514,197.861,225.884,198.334Z" transform="translate(-225.747 -193.311)" fill="#263238"/></g><g transform="translate(99.484 79.645)"><path d="M291.889,217.851c.481-.238,19.513-6.928,19.941,12.835s-19.5,16.114-19.548,15.548S291.889,217.851,291.889,217.851Z" transform="translate(-291.889 -216.572)" fill="#ffbf9d"/></g><g transform="translate(105.735 85.974)"><path d="M296.467,236.906c.086-.064.35.233.937.488a3.439,3.439,0,0,0,2.575,0c2.071-.811,3.757-4.164,3.776-7.728a11.386,11.386,0,0,0-1.07-4.908,3.979,3.979,0,0,0-2.646-2.586,1.753,1.753,0,0,0-2.012.987c-.252.559-.119.951-.223.987-.053.051-.43-.322-.289-1.142a2.195,2.195,0,0,1,.751-1.255,2.6,2.6,0,0,1,1.893-.544c1.525.073,2.929,1.445,3.662,2.986a11.7,11.7,0,0,1,1.313,5.482c-.04,3.985-2,7.756-4.837,8.644a3.7,3.7,0,0,1-3.16-.455C296.513,237.383,296.4,236.943,296.467,236.906Z" transform="translate(-296.45 -221.19)" fill="#ff9a6c"/></g><g transform="translate(12.844)"><path d="M229.318,181.533c-3.222-1.724,6.245-12.206,14.06-15.873,11.811-5.542,29.911-9.095,40.905-6.129,13.236,3.572,24.277,9.992,31.053,21.912s9.443,25.874,9.234,39.582c-.064,4.181-.441,8.546-2.63,12.11-2.7,4.406-7.967,7.227-7.657,13.251a8.275,8.275,0,0,1-1.976,6.06c-3.566,3.894-8.037.336-10.117-3.263-4.443-7.686-5.046-16.922-5.541-25.786-.354-6.3-.691-12.736,1.009-18.813.924-3.307,2.438-6.44,3.178-9.794s.589-7.146-1.527-9.848a12.454,12.454,0,0,0-1.627-1.6,20.61,20.61,0,0,0-20.5-3.63c-11.079,4.08-30.011,10.2-35.023,6.491-7.212-5.342-8.966-8.864-8.966-8.864Z" transform="translate(-228.671 -158.458)" fill="#263238"/></g></g><g transform="translate(21.822)"><path d="M280.789,157.91c-10.907-3.493-23.27-3.145-33.366,2.259-5.361,2.868-10.177,7.4-11.748,13.279s1.02,13.042,6.678,15.262l.391.24c8.468,2.73,13.935,1.529,22.306-1.488,7.043-2.54,13.279-6.985,20.334-9.491a40.159,40.159,0,0,1,23.5-.985C301.216,168.48,291.7,161.4,280.789,157.91Z" transform="translate(-235.222 -155.631)" fill="#263238"/></g></g><g transform="translate(84.553 16.892)"><path d="M306.02,174.224c-.169.152-1.76-1.739-4.971-3.968a28.7,28.7,0,0,0-6-3.208,18.473,18.473,0,0,0-8.038-1.344,26.875,26.875,0,0,0-13.779,5.681c-3.056,2.426-4.476,4.461-4.661,4.317-.067-.048.21-.606.859-1.52a21.285,21.285,0,0,1,3.2-3.513,25.539,25.539,0,0,1,14.271-6.282,18.71,18.71,0,0,1,8.6,1.532,26.078,26.078,0,0,1,6.1,3.587C304.777,172.006,306.133,174.148,306.02,174.224Z" transform="translate(-268.565 -164.337)" fill="#455a64"/></g><g transform="translate(98.6 33.781)"><path d="M304.194,176.663c.14.033-.195,2.26-1.5,5.641a41.067,41.067,0,0,1-18.45,20.787c-3.2,1.7-5.372,2.3-5.42,2.163-.233-.382,8.3-3.622,15.47-11.825C301.581,185.334,303.787,176.478,304.194,176.663Z" transform="translate(-278.815 -176.66)" fill="#455a64"/></g><g transform="translate(97.419 36.985)"><path d="M312.556,179a6.748,6.748,0,0,1,.079,2.25,35.023,35.023,0,0,1-.863,6.071,41.282,41.282,0,0,1-25.683,29.462,35.154,35.154,0,0,1-5.9,1.684,6.669,6.669,0,0,1-2.239.228c-.052-.232,3.106-.778,7.786-2.778a43.462,43.462,0,0,0,25.127-28.823C312.208,182.182,312.32,178.979,312.556,179Z" transform="translate(-277.953 -178.998)" fill="#455a64"/></g><g transform="translate(33.317 5.394)"><path d="M259.649,155.991c.047.217-2.049.7-5.234,1.972a42.946,42.946,0,0,0-20.278,16.708c-1.854,2.884-2.734,4.846-2.938,4.761-.133-.049.443-2.159,2.138-5.242a37.44,37.44,0,0,1,20.759-17.1C257.447,156.013,259.629,155.85,259.649,155.991Z" transform="translate(-231.181 -155.947)" fill="#455a64"/></g><g transform="translate(123.239 7.913)"><path d="M311.774,157.788c.329-.008-.536,5.726-5.011,11-4.418,5.322-9.916,7.165-9.965,6.84-.2-.362,4.78-2.642,8.953-7.69C310,162.954,311.383,157.656,311.774,157.788Z" transform="translate(-296.793 -157.785)" fill="#455a64"/></g><g transform="translate(74.218 99.852)"><path d="M262.493,225.6a.735.735,0,1,1-.735-.735A.735.735,0,0,1,262.493,225.6Z" transform="translate(-261.024 -224.869)" fill="#ff9a6c"/></g><g transform="translate(79.655 99.852)"><circle cx="0.735" cy="0.735" r="0.735" fill="#ff9a6c"/></g></g><g transform="translate(156.007 212.912)"><g transform="translate(5.038 0)"><g transform="translate(3.894 0)"><rect width="94.263" height="128.046" rx="1.995" transform="matrix(0.958, 0.286, -0.286, 0.958, 36.635, 0)" fill="#455a64"/></g><g transform="translate(3.069 91.382)"><path d="M243.368,388.785a7.4,7.4,0,0,1-6.007-7.568,7.439,7.439,0,1,1,14.869.53l-1.369-.048a6.069,6.069,0,1,0-7.232,5.74Z" transform="translate(-237.356 -374.042)" fill="#263238"/></g><g transform="translate(6.139 81.293)"><path d="M245.608,381.422a7.44,7.44,0,1,1,8.86-7.036l-1.369-.048a6.068,6.068,0,1,0-7.231,5.737Z" transform="translate(-239.596 -366.681)" fill="#263238"/></g><g transform="translate(9.207 71.205)"><path d="M247.847,374.06a7.44,7.44,0,1,1,8.863-7.036l-1.371-.048a6.069,6.069,0,1,0-7.232,5.737Z" transform="translate(-241.835 -359.32)" fill="#263238"/></g><g transform="translate(12.277 61.115)"><path d="M250.086,366.7a7.441,7.441,0,1,1,8.863-7.038l-1.37-.048a6.068,6.068,0,1,0-7.231,5.74Z" transform="translate(-244.075 -351.957)" fill="#263238"/></g><g transform="translate(15.346 51.026)"><path d="M252.326,359.336a7.44,7.44,0,1,1,8.863-7.036l-1.371-.048a6.076,6.076,0,0,0-5.847-6.282,6.069,6.069,0,0,0-1.384,12.021Z" transform="translate(-246.314 -344.596)" fill="#263238"/></g><g transform="translate(18.416 40.938)"><path d="M254.565,351.975a7.441,7.441,0,0,1-3.64-12.748,7.511,7.511,0,0,1,5.334-1.989,7.438,7.438,0,0,1,7.17,7.7l-1.37-.048a6.069,6.069,0,1,0-7.232,5.738Z" transform="translate(-248.554 -337.235)" fill="#263238"/></g><g transform="translate(21.485 30.845)"><path d="M256.8,344.612a7.44,7.44,0,0,1,1.424-14.741c.092,0,.181,0,.271,0a7.45,7.45,0,0,1,7.168,7.7l-1.37-.049a6.068,6.068,0,1,0-7.229,5.738Z" transform="translate(-250.794 -329.871)" fill="#263238"/></g><g transform="translate(24.554 20.755)"><path d="M259.045,337.252a7.441,7.441,0,1,1,8.862-7.038l-1.37-.048a6.068,6.068,0,1,0-7.229,5.738Z" transform="translate(-253.033 -322.509)" fill="#263238"/></g><g transform="translate(27.624 10.668)"><path d="M261.284,329.889a7.44,7.44,0,1,1,8.864-7.036l-1.37-.048a6.077,6.077,0,0,0-5.848-6.282,6.068,6.068,0,0,0-1.384,12.019Z" transform="translate(-255.273 -315.148)" fill="#263238"/></g><g transform="translate(30.693 0.577)"><path d="M263.524,322.526a7.44,7.44,0,1,1,8.863-7.035l-1.371-.049a6.068,6.068,0,1,0-7.231,5.738Z" transform="translate(-257.512 -307.786)" fill="#263238"/></g><g transform="translate(0 101.475)"><path d="M241.128,396.144a7.44,7.44,0,0,1-3.64-12.747,7.439,7.439,0,0,1,12.5,5.712l-1.369-.048a6.068,6.068,0,1,0-7.232,5.737Z" transform="translate(-235.117 -381.406)" fill="#263238"/></g></g><g transform="translate(8.013 15.927)"><path d="M250.672,411.432c1.51-3.88,17.915-61.589,25.417-85.283a10.629,10.629,0,0,1,13.076-6.692l84.272,25.052a9.943,9.943,0,0,1,6.463,12.208L342.655,485.752a9.944,9.944,0,0,1-12.148,6.843l-85.868-23.209a9.944,9.944,0,0,1-6.97-12.317l12.81-45.112Z" transform="translate(-237.288 -318.985)" fill="#fff"/></g><g transform="translate(0 13.308)"><g transform="translate(0.323 0.037)"><path d="M282.846,317.326a6.529,6.529,0,0,0-7.934,4.4c-6.274,20.544-26.515,86.754-28.012,90.881l-14.937,48.919a6.529,6.529,0,0,0,4.6,8.227l92.5,24.051a6.531,6.531,0,0,0,7.917-4.51L377.3,349.516a6.531,6.531,0,0,0-4.584-8.118Z" transform="translate(-231.677 -317.102)" fill="#e0e0e0"/></g><path d="M282.934,317.336s.447.095,1.31.312l3.825.988,14.69,3.866,53.992,14.345,8.748,2.331,4.521,1.206,2.3.613a7.775,7.775,0,0,1,2.3.891,6.811,6.811,0,0,1,3.271,6.485,13.846,13.846,0,0,1-.587,2.477q-1.386,4.823-2.823,9.822c-3.833,13.328-7.928,27.568-12.239,42.552S353.4,433.937,348.7,450.242q-3.523,12.228-7.166,24.868-1.821,6.313-3.668,12.718l-.463,1.6a7.035,7.035,0,0,1-.71,1.606,6.841,6.841,0,0,1-5.881,3.336,7.145,7.145,0,0,1-1.756-.217l-1.632-.425L276.576,480.5q-12.318-3.209-24.18-6.3l-11.722-3.054-2.889-.754a11.023,11.023,0,0,1-2.875-1,6.87,6.87,0,0,1-3.177-7.945q.426-1.392.847-2.771.845-2.763,1.679-5.488,1.669-5.45,3.291-10.749,3.246-10.6,6.295-20.555c4.091-13.25,7.9-25.593,11.381-36.863,6.99-22.515,12.647-40.736,16.563-53.347.983-3.145,1.856-5.941,2.612-8.367a12.615,12.615,0,0,1,1.3-3.278,6.59,6.59,0,0,1,5.915-2.953,5.232,5.232,0,0,1,1.324.248c-.006.03-.444-.122-1.328-.175a6.567,6.567,0,0,0-3.729.981,6.426,6.426,0,0,0-2.032,2,12.456,12.456,0,0,0-1.24,3.243q-1.11,3.649-2.551,8.386c-3.865,12.631-9.45,30.878-16.349,53.422l-11.3,36.891q-3.03,9.948-6.259,20.559-1.614,5.3-3.274,10.752-.83,2.724-1.672,5.486-.419,1.379-.843,2.77a6.211,6.211,0,0,0,2.878,7.179,10.466,10.466,0,0,0,2.715.929l2.89.75,11.726,3.044,24.183,6.278,50.855,13.214a12.641,12.641,0,0,0,3.207.619,6.134,6.134,0,0,0,5.271-2.99,12.253,12.253,0,0,0,1.1-3.04q1.848-6.4,3.67-12.718,3.645-12.626,7.177-24.864c4.709-16.3,9.251-32.026,13.579-47.007s8.449-29.211,12.3-42.534q1.447-5,2.842-9.817a13.31,13.31,0,0,0,.573-2.372,6.261,6.261,0,0,0-2.992-5.958,7.249,7.249,0,0,0-2.159-.837l-2.294-.618-4.52-1.216-8.741-2.355L302.687,322.77l-14.655-4-3.807-1.055C283.368,317.477,282.934,317.336,282.934,317.336Z" transform="translate(-231.441 -317.075)" fill="#263238"/></g><g transform="translate(3.278 145.048)" opacity="0.3"><path d="M288.645,417.425,233.833,413.2c.7,4.05,3.873,7.325,7.53,9.2s7.785,2.575,11.838,3.249l18.632,3.1c2.368.395,4.882.857,6.652,2.479,1.913,1.753,2.55,4.484,4.042,6.607,2.445,3.481,6.826,4.922,10.908,6.123A481.843,481.843,0,0,0,342.5,456.119c4.6.842,9.374,1.577,13.922.474s8.851-4.5,9.616-9.111Z" transform="translate(-233.833 -413.2)"/></g><g transform="translate(8.275 15.927)"><path d="M284.526,318.986c.188.058-10.191,33.725-23.181,75.187-12.992,41.477-23.676,75.041-23.863,74.982s10.19-33.719,23.182-75.2C273.653,352.5,284.338,318.927,284.526,318.986Z" transform="translate(-237.479 -318.986)" fill="#263238"/></g><g transform="translate(58.09 47.166)"><rect width="55.695" height="27.879" transform="translate(7.977 0) rotate(16.625)" fill="#fff"/></g></g><g transform="translate(156.459 298.602)"><path d="M297.229,394.09s-13.541-18.026-18.439-22.135-25.171-.82-25.171-.82l-8.808,9.266s1.739,7.04,9.957,3.563l2.285-1.731,9.41-.007,5.84,6.8-18.324-.321s-9.008-5.848-11.063-5.848-6.992,3.951-3.418,10.905c0,0-6.855,2.212-4.484,11.537,0,0-5.738,1.58-.5,12.643l.656,1.264s-6.006,2.845-2.054,9.166,13.908,8.219,16.911,8.06,57.034,7.794,57.034,7.794l14.606-37.962Z" transform="translate(-231.771 -369.889)" fill="#ffbf9d"/><g transform="translate(7.82 24.223)"><path d="M254.164,396.774a7.973,7.973,0,0,1-2.9-.143,21.088,21.088,0,0,1-12.115-6.685,8.022,8.022,0,0,1-1.667-2.378c.173-.163,2.756,3.54,7.5,6.118C249.7,396.33,254.21,396.541,254.164,396.774Z" transform="translate(-237.477 -387.563)" fill="#ff9a6c"/></g><g transform="translate(2.599 35.162)"><path d="M246.9,405.955a6.867,6.867,0,0,1-2.434-.707,22.693,22.693,0,0,1-9.535-7.5,6.9,6.9,0,0,1-1.261-2.2c.186-.133,2.252,3.152,5.959,6.037C243.31,404.509,246.99,405.744,246.9,405.955Z" transform="translate(-233.667 -395.545)" fill="#ff9a6c"/></g><g transform="translate(2.807 49.385)"><path d="M246.876,413.117c-.022.174-3.45-.4-7.151-2.456-3.717-2.03-6.036-4.617-5.9-4.73.148-.162,2.627,2.133,6.244,4.1C243.668,412.035,246.933,412.9,246.876,413.117Z" transform="translate(-233.819 -405.923)" fill="#ff9a6c"/></g><g transform="translate(57.638 26.111)"><path d="M417.755,411.125l-58.743-9.132-69.041-13.053-16.145,54.271s82.5,24.191,105.107,27.165c24.151,3.177,33.516,0,41.171-15.869C424.986,444.392,421.953,424.088,417.755,411.125Z" transform="translate(-273.827 -388.941)" fill="#f40076"/></g><g transform="translate(57.211 25.703)"><path d="M363.152,467.381a2.639,2.639,0,0,1-.441-.088c-.318-.079-.741-.184-1.288-.318l-4.974-1.283-18.581-4.908-64.014-17.133-.339-.091.1-.337c3.218-10.834,6.7-22.552,10.3-34.678,2-6.713,3.959-13.3,5.833-19.6l.092-.308.315.063,75.614,14.973,22.341,4.5,6.01,1.243,1.553.339a3.254,3.254,0,0,1,.525.136,3.4,3.4,0,0,1-.537-.071l-1.565-.275-6.033-1.122-22.382-4.288L290.019,389.4l.406-.245c-1.871,6.3-3.829,12.885-5.825,19.6-3.611,12.122-7.1,23.837-10.328,34.668l-.24-.428,63.947,17.377,18.531,5.1,4.945,1.392,1.272.373A2.589,2.589,0,0,1,363.152,467.381Z" transform="translate(-273.515 -388.643)" fill="#263238"/></g></g></g></g></g></svg>