<svg xmlns="http://www.w3.org/2000/svg" width="14.967" height="14.967" viewBox="0 0 14.967 14.967"><path d="M3.627,2A1.611,1.611,0,0,0,2,3.627v8.785a1.611,1.611,0,0,0,1.627,1.627h8.785a1.611,1.611,0,0,0,1.627-1.627V4.542l-.651.712v7.158a.959.959,0,0,1-.976.976H3.627a.959.959,0,0,1-.976-.976V3.627a.959.959,0,0,1,.976-.976h8.592l.549-.62c-.13,0-.226-.031-.356-.031Zm9.517,1.088L7.511,9.351,4.817,6.962l-.427.488,2.928,2.6.244.214.214-.244,5.857-6.507Zm1.546,1.84v.651h.651a.959.959,0,0,1,.976.976V15.34a.959.959,0,0,1-.976.976H6.555a.959.959,0,0,1-.976-.976V14.69H4.928v.651a1.611,1.611,0,0,0,1.627,1.627H15.34a1.611,1.611,0,0,0,1.627-1.627V6.555A1.611,1.611,0,0,0,15.34,4.928Z" transform="translate(-2 -2)"/></svg>