<svg xmlns="http://www.w3.org/2000/svg" width="105" height="49.282" viewBox="0 0 105 49.282"><g transform="translate(67.487 13.791)"><path d="M220.4,112.832l-.387-18.5-6.307,3.241-2.67,11.129Z" transform="translate(-211.039 -94.331)" fill="#263238"/></g><g transform="translate(60.551 39.484)"><path d="M206.815,144.889l-6.6,3.311-2.488-.289,4.345-3.425,4.277-.857Z" transform="translate(-197.731 -143.629)" fill="#263238"/></g><g transform="translate(0 29.612)"><path d="M106.314,124.688,81.549,143.919l27.867-17.941Z" transform="translate(-81.549 -124.688)" fill="#e0e0e0"/></g><g transform="translate(0 29.479)"><path d="M121.782,129.759c-.376.188-36.285,14.476-36.285,14.476l-3.948-.438,27.261-19.365Z" transform="translate(-81.549 -124.432)" fill="#263238"/></g><g transform="translate(28.772 35.631)"><path d="M1.076,0h3.2A1.076,1.076,0,0,1,5.356,1.076v0A1.076,1.076,0,0,1,4.28,2.152h-3.2A1.076,1.076,0,0,1,0,1.076v0A1.076,1.076,0,0,1,1.076,0Z" transform="translate(4.96 4.015) rotate(-157.821)" fill="#455a64"/></g><g transform="translate(11.59 43.822)"><path d="M1.076,0h3.2A1.076,1.076,0,0,1,5.356,1.076v0A1.076,1.076,0,0,1,4.28,2.152h-3.2A1.076,1.076,0,0,1,0,1.076v0A1.076,1.076,0,0,1,1.076,0Z" transform="translate(4.96 4.015) rotate(-157.821)" fill="#455a64"/></g><g transform="translate(13.401 31.902)"><path d="M111.254,129.082s10.806,1.49,9.295,7.158-12.174-.3-12.174-.3-1.579-.907-.974-3.93S111.254,129.082,111.254,129.082Z" transform="translate(-107.262 -129.081)" fill="#f40076"/><g transform="translate(0.73 0.479)"><path d="M108.983,132.261a3.724,3.724,0,0,1,1.152-1.867,1.692,1.692,0,0,1,2.059-.079l.3.19a3.049,3.049,0,0,1,.615,3.16l.111-.343a4.686,4.686,0,0,1-1.815,2.9,1.712,1.712,0,0,1-.859.377,1.447,1.447,0,0,1-1.069-.449,2.843,2.843,0,0,1-.8-1.857A5.4,5.4,0,0,1,108.983,132.261Z" transform="translate(-108.663 -130.001)" fill="#263238"/></g></g><g transform="translate(1.617 6.356)"><g transform="translate(0.125 0.129)"><path d="M165.685,108.642s4.412,4.412-3.981,5.488-22.921.538-39.278-5.058S91.507,95.63,88.959,93.576c-1.892-1.525-4.924-4.132-3.839-7.872a6.378,6.378,0,0,1,3.975-4.133,18.909,18.909,0,0,1,11.271-.693C107.683,82.815,165.685,108.642,165.685,108.642Z" transform="translate(-84.891 -80.313)" fill="#fff"/></g><path d="M165.57,108.523s-.152-.058-.44-.181l-1.278-.553-4.908-2.147-18.055-7.89c-7.63-3.314-16.717-7.256-26.863-11.5-2.54-1.051-5.142-2.132-7.819-3.186-1.332-.546-2.7-1.032-4.071-1.556-.7-.219-1.389-.467-2.1-.666a16.949,16.949,0,0,0-2.179-.4,19.3,19.3,0,0,0-8.9,1.162,6.4,6.4,0,0,0-3.379,2.931A5.382,5.382,0,0,0,85.269,89a9.589,9.589,0,0,0,2.822,3.654,22.71,22.71,0,0,0,3.828,2.614c2.673,1.543,5.381,2.938,8.065,4.255,5.373,2.629,10.674,4.923,15.8,6.911a128.576,128.576,0,0,0,14.818,4.858,100.381,100.381,0,0,0,13.354,2.479,83.83,83.83,0,0,0,11.191.6c1.651-.012,3.184-.113,4.593-.224a25.417,25.417,0,0,0,3.818-.555,5.156,5.156,0,0,0,2.675-1.393,1.967,1.967,0,0,0,.461-1.1,2.546,2.546,0,0,0-.152-.995,4.538,4.538,0,0,0-.67-1.207c-.189-.25-.3-.368-.3-.368a2.925,2.925,0,0,1,.321.351,4.409,4.409,0,0,1,.7,1.205,2.59,2.59,0,0,1,.168,1.018,2.044,2.044,0,0,1-.466,1.15,5.223,5.223,0,0,1-2.711,1.444,25.26,25.26,0,0,1-3.833.582c-1.411.119-2.948.227-4.6.247a83.156,83.156,0,0,1-11.215-.557,99.9,99.9,0,0,1-13.387-2.452,127.879,127.879,0,0,1-14.852-4.843c-5.134-1.984-10.442-4.276-15.824-6.906-2.69-1.317-5.4-2.713-8.084-4.261a22.974,22.974,0,0,1-3.87-2.643,9.845,9.845,0,0,1-2.9-3.762,5.655,5.655,0,0,1,.322-4.684,6.672,6.672,0,0,1,3.523-3.057,19.554,19.554,0,0,1,9.031-1.174,17.2,17.2,0,0,1,2.212.407c.718.2,1.417.452,2.121.674,1.373.525,2.746,1.015,4.078,1.562,2.679,1.059,5.281,2.142,7.821,3.2,10.143,4.258,19.223,8.219,26.843,11.555l18.021,7.969,4.888,2.193,1.269.579C165.429,108.45,165.57,108.523,165.57,108.523Z" transform="translate(-84.652 -80.065)" fill="#263238"/></g><g transform="translate(56.912 24.742)"><g transform="translate(0 1.058)"><path d="M202.61,121.751v1.724l-11.862-5.111,1.822-.991Z" transform="translate(-190.748 -117.372)" fill="#263238"/></g><g transform="translate(9.858 3.929)"><path d="M210.743,123.422v2.938l-1.081-.47v-3.008Z" transform="translate(-209.662 -122.881)" fill="#fff"/></g><g transform="translate(7.578 2.682)"><path d="M206.369,121.03v2.938l-1.081-.47v-3.008Z" transform="translate(-205.288 -120.489)" fill="#fff"/></g><g transform="translate(5.298 1.809)"><path d="M201.995,119.354v2.938l-1.081-.47v-3.008Z" transform="translate(-200.914 -118.814)" fill="#fff"/></g><g transform="translate(0.812)"><path d="M193.386,115.883v2.938l-1.081-.47v-3.008Z" transform="translate(-192.305 -115.343)" fill="#fff"/></g></g><g transform="translate(42.721 0.129)"><path d="M225.8,68.6,174.956,96.278l-11.437-5.486L219.7,68.117Z" transform="translate(-163.519 -68.117)" fill="#263238"/></g><g transform="translate(42.721)"><g transform="translate(0 0.129)"><path d="M165.668,86.293,219.7,68.117,163.519,90.792" transform="translate(-163.519 -68.117)" fill="#fff"/></g><g transform="translate(0)"><path d="M163.519,90.674s.092-.047.276-.127l.821-.346,3.168-1.306,11.668-4.756,38.533-15.6,1.662-.67.094.254L181.456,80.963,169.906,84.8l-3.139,1.029-.818.261c-.185.057-.281.08-.281.08s.091-.04.273-.106l.809-.286,3.122-1.077L181.4,80.784,219.653,67.87l.094.254-1.661.671L179.523,84.317l-11.7,4.676-3.186,1.259-.831.321C163.617,90.644,163.519,90.674,163.519,90.674Z" transform="translate(-163.519 -67.87)" fill="#263238"/></g></g><g transform="translate(77.34 11.405)"><rect width="5.356" height="2.152" rx="1.076" transform="translate(4.31 4.912) rotate(-143.572)" fill="#455a64"/></g><g transform="translate(79.548 26.869)"><path d="M253.839,119.656c-.174.116-16.164,8.343-16.164,8.343l-3.494-1.957,15.318-6.618Z" transform="translate(-234.181 -119.424)" fill="#263238"/></g><g transform="translate(77.672 26.869)"><path d="M247.487,119.424h-1.1l-15.805,5.787,1.876.831Z" transform="translate(-230.582 -119.424)" fill="#fff"/></g><g transform="translate(17.815 8.326)"><path d="M140.973,94.548l-1.485,1.122-23.756-10.15.27-1.674Z" transform="translate(-115.731 -83.846)" fill="#263238"/></g><g transform="translate(40.655 17.159)"><path d="M160.637,101.333v2.938l-1.081-.47v-3.008Z" transform="translate(-159.555 -100.793)" fill="#fff"/></g><g transform="translate(38.231 16.059)"><path d="M155.985,99.225v2.938l-1.081-.47V98.684Z" transform="translate(-154.903 -98.684)" fill="#fff"/></g><g transform="translate(35.806 14.96)"><path d="M151.333,97.116v2.938l-1.081-.47V96.575Z" transform="translate(-150.252 -96.575)" fill="#fff"/></g><g transform="translate(33.381 13.861)"><path d="M146.68,95.007v2.938l-1.081-.47V94.466Z" transform="translate(-145.599 -94.466)" fill="#fff"/></g><g transform="translate(30.957 12.762)"><path d="M142.028,92.9v2.938l-1.081-.47V92.357Z" transform="translate(-140.947 -92.357)" fill="#fff"/></g><g transform="translate(28.532 11.663)"><path d="M137.376,90.789v2.938l-1.081-.47V90.248Z" transform="translate(-136.295 -90.248)" fill="#fff"/></g><g transform="translate(26.108 10.76)"><path d="M132.724,89.056v2.938l-1.081-.47V88.515Z" transform="translate(-131.643 -88.515)" fill="#fff"/></g><g transform="translate(60.011 25.643)"><path d="M197.775,117.614v2.938l-1.081-.47v-3.008Z" transform="translate(-196.694 -117.073)" fill="#fff"/></g><g transform="translate(23.683 9.727)"><path d="M128.072,87.074v2.938l-1.081-.47V86.534Z" transform="translate(-126.991 -86.534)" fill="#fff"/></g><g transform="translate(21.227 8.757)"><path d="M123.358,85.214v2.938l-1.081-.47V84.673Z" transform="translate(-122.277 -84.673)" fill="#fff"/></g><g transform="translate(18.77 7.788)"><path d="M118.644,83.353V86.29l-1.081-.47V82.812Z" transform="translate(-117.563 -82.812)" fill="#fff"/></g><g transform="translate(5.945 6.854)"><path d="M99.485,82.715s-4.064-1.2-6.529-.8a9.806,9.806,0,0,1,2.326-.706s1.531-.553,4.581.264Z" transform="translate(-92.956 -81.022)" fill="#263238"/></g><g transform="translate(60.458 40.421)"><path d="M197.731,148.785l3.029-3.332,1.45.113Z" transform="translate(-197.638 -145.439)" fill="#e0e0e0"/><path d="M197.553,148.855l.083-.091,3.033-3.337h.006l1.486.115-.029.021Zm3.127-3.4-2.941,3.236,4.349-3.127Z" transform="translate(-197.553 -145.427)" fill="#263238"/></g><g transform="translate(66.71 17.082)"><rect width="5.356" height="2.152" rx="1.076" transform="translate(4.31 4.912) rotate(-143.572)" fill="#455a64"/></g><g transform="translate(88.599 5.359)"><path d="M1.076,0H4.281A1.076,1.076,0,0,1,5.356,1.076v0A1.076,1.076,0,0,1,4.28,2.152h-3.2A1.076,1.076,0,0,1,0,1.076v0A1.076,1.076,0,0,1,1.076,0Z" transform="matrix(-0.805, -0.594, 0.594, -0.805, 4.31, 4.912)" fill="#455a64"/></g><g transform="translate(53.418 12.547)"><path d="M188.76,92.006s10.4,3.288,7.957,8.62-11.949-2.347-11.949-2.347-1.4-1.16-.3-4.038S188.76,92.006,188.76,92.006Z" transform="translate(-184.045 -91.945)" fill="#f40076"/><g transform="translate(0.689 0.401)"><path d="M186.032,94.579a3.722,3.722,0,0,1,1.449-1.646,1.692,1.692,0,0,1,2.042.269l.264.238a3.047,3.047,0,0,1,.075,3.219l.167-.32a4.684,4.684,0,0,1-2.276,2.555,1.713,1.713,0,0,1-.91.227,1.448,1.448,0,0,1-.978-.623,2.846,2.846,0,0,1-.481-1.965A5.4,5.4,0,0,1,186.032,94.579Z" transform="translate(-185.367 -92.713)" fill="#263238"/></g></g><g transform="translate(7.976 14.803)" opacity="0.1"><path d="M98.3,96.389c1.468-.412,2.784.36,4,1.091,19.091,11.509,40.459,20.7,62.727,20.646a1.253,1.253,0,0,1,1.165.774h0a1.257,1.257,0,0,1-1.11,1.732,104.955,104.955,0,0,1-66.844-20.492c-.717-.534-1.488-1.173-1.371-2.172A1.929,1.929,0,0,1,98.3,96.389Z" transform="translate(-96.853 -96.274)"/></g></svg>